<?xml version="1.0" encoding="utf-8"?>
<!-- Generator: Adobe Illustrator 24.2.3, SVG Export Plug-In . SVG Version: 6.00 Build 0)  -->
<svg version="1.1" id="Layer_1" xmlns="http://www.w3.org/2000/svg" xmlns:xlink="http://www.w3.org/1999/xlink" x="0px" y="0px"
	 viewBox="0 0 422.7 388.7" style="enable-background:new 0 0 422.7 388.7;" xml:space="preserve">
<style type="text/css">
	.st0{fill:#E14C4B;}
	.st1{fill:#404549;}
</style>
<g>
	<path class="st0" d="M391.6,329.5c-0.8,0.3-0.7,1.1-0.9,1.8c-4.8,16.8-18.3,27.1-35.9,27.1c-50.5,0-100.9,0-151.4,0
		c-45.8,0-91.5,0-137.3,0c-20.7,0-36-15.8-35.1-36.1c0.3-6.2,2.5-11.8,5.5-17.2c33.8-60,67.7-120.1,101.5-180.1
		c14.3-25.4,28.8-50.7,42.9-76.3c10.6-19.2,33.8-23,49.6-12.4c4.7,3.2,8.1,7.4,10.9,12.3c48.3,85.8,96.6,171.6,145,257.3
		c2.4,4.2,3.7,8.7,5.1,13.2C391.6,322.5,391.6,326,391.6,329.5z M211.3,64.4c-0.7,1.2-1.1,1.8-1.4,2.4
		c-47.7,84.6-95.4,169.3-143,253.9c-2,3.6-2,3.6,2.1,3.6c94.8,0,189.6,0,284.4,0c0.8,0,1.6,0,2.5,0c1.1,0,1.5-0.5,1-1.6
		c-0.4-0.8-0.9-1.7-1.3-2.5c-42.7-75.8-85.4-151.5-128-227.3C222.2,83.7,216.9,74.3,211.3,64.4z"/>
	<path class="st1" d="M235.5,180.7c-1.5,10.3-3,20.6-4.6,30.9c-1.6,10.4-3.1,20.9-4.8,31.3c-1.2,7.6-7.8,13.3-15,13.3
		c-7.4-0.1-13.4-5.3-14.6-13.1c-3-19.6-6-39.1-8.9-58.7c-1.8-12.2,6.2-24.3,17.7-27.3c12.1-3.1,24.3,3.3,28.7,15
		C235.1,174.9,235.5,177.7,235.5,180.7z"/>
	<path class="st1" d="M211.3,268.8c7.6,0,13.5,6,13.5,13.6c0,7.6-6.1,13.5-13.7,13.4c-7.4-0.1-13.3-6-13.3-13.5
		C197.8,274.7,203.7,268.8,211.3,268.8z"/>
</g>
</svg>
