<?xml version="1.0" encoding="utf-8"?>
<!-- Generator: Adobe Illustrator 27.0.0, SVG Export Plug-In . SVG Version: 6.00 Build 0)  -->
<svg version="1.1" id="Layer_1" xmlns="http://www.w3.org/2000/svg" xmlns:xlink="http://www.w3.org/1999/xlink" x="0px" y="0px"
	 viewBox="0 0 177.65 177.65" style="enable-background:new 0 0 177.65 177.65;" xml:space="preserve">
<style type="text/css">
	.st0{fill:#4A91FF;}
	.st1{fill:#71BDFF;}
	.st2{fill:#4A77EC;}
	.st3{fill:#757576;}
	.st4{fill:#FEA626;}
	.st5{fill:#636363;}
	.st6{fill:#FEB64D;}
	.st7{fill:#9ADBF8;}
	.st8{fill:#B9E5FB;}
	.st9{fill:#FECB80;}
	.st10{fill:#FDCA81;}
	.st11{fill:#005DAC;}
	.st12{fill:#BCBBBC;}
	.st13{fill:#FECB7E;}
</style>
<g>
	<path class="st0" d="M22.62,99.75c0-8.78,0-17.49,0-26.26c0.8-0.29,0.59-1.02,0.73-1.54c2.27-9.07,11.34-16.17,20.7-16.17
		c29.48,0,58.97,0,88.45,0c1.24,0,2.41,0.07,3.66,0.22c8.63,1.24,15.88,7.68,18.07,16.1c0.15,0.51-0.07,1.24,0.73,1.39
		c0,8.78,0,17.49,0,26.26c-0.07,0.07-0.15,0.15-0.15,0.22c-1.24,5.93-5.27,9.73-11.12,10.61c-2.41,0.37-2.78,0.15-3.88-2.05
		c-0.22-0.44-0.44-0.88-0.66-1.24c-3.15-5.71-9.66-8.78-15.8-7.97c-6.22,0.88-10.61,4.32-13.02,10.17c-0.37,1.02-0.95,1.24-1.9,1.24
		c-1.97-0.07-4.02,0-6,0c0-0.58-0.07-1.17-0.07-1.68c0-6.44,0-12.88,0-19.31c0-1.98-0.66-3.58-2.27-4.76
		c-1.17-1.17-2.71-1.61-4.32-1.61c-3.88,0-7.68,0-11.56,0c-4.39,0-7.02,2.56-7.02,7.02c0,6.8,0,13.61-0.07,20.41
		c-1.98,0.37-3.37-0.22-3.88-2.34c-0.07-0.37-0.29-0.66-0.51-1.02c-3.15-5.71-9.73-8.78-15.8-7.97c-6.29,0.88-10.68,4.39-13.1,10.32
		c-0.29,0.8-0.73,1.1-1.54,1.1c-2.63-0.07-5.34,0.07-7.97-0.07c-3.51-0.22-6.44-1.61-8.85-4.24
		C24.08,104.36,23.28,102.09,22.62,99.75z M121.68,76.26c2.85,0,5.78,0.07,8.63,0c2.41,0,4.1-1.76,4.17-4.1c0-0.51,0-1.02,0-1.54
		c0-1.54,0-3.07,0-4.61c-0.58-2.12-1.9-3.37-4.17-3.44c-3.58-0.07-7.1,0-10.68,0c-0.88,0-1.17,0.29-1.17,1.17
		c0.07,3.44,0,6.88,0,10.24c-0.07,2.78-0.22,2.27,2.34,2.27C121.17,76.26,121.39,76.26,121.68,76.26z M113.92,72.53
		c0-2.19,0-4.39,0-6.58c0-0.66-0.07-1.32,0.07-1.98c0.15-1.1-0.22-1.46-1.39-1.46c-2.85,0.07-5.78,0.07-8.63,0
		c-1.02,0-1.46,0.22-1.39,1.32c0.07,2.19,0,4.46,0,6.66c0,1.61,0,3.29,0,4.9c-0.15,0.88,0.51,0.8,1.1,0.8c2.19,0,4.46,0,6.66,0
		C114,76.26,114,76.26,113.92,72.53z M88.54,76.26c2.78,0,5.49,0,8.27,0c0.88,0,1.17-0.29,1.17-1.17c-0.07-1.39,0-2.85,0-4.32
		c0-1.61,0-3.22,0-4.9c0-0.66-0.07-1.32,0-1.98c0.15-1.1-0.29-1.46-1.39-1.46c-3.44,0.07-6.88,0-10.24,0
		c-2.63,0-4.32,1.68-4.32,4.24c0,1.98,0,4.02,0,6c0,1.17,0.73,1.98,1.54,2.71C85.1,76.78,86.86,76.12,88.54,76.26z M68.27,66.61
		c0-0.95,0-1.9,0-2.78c0-1.02-0.44-1.83-1.39-2.34c-0.66-0.8-1.46-1.17-2.49-1.17c-6.07,0-12.14,0-18.29,0
		c-1.61,0-2.93,0.66-3.58,2.12c-0.88,1.9-1.68,3.8-2.27,5.78c-1.02,1.39-1.24,3.15-1.9,4.68c-0.73,1.68-0.29,3.22,1.1,4.46
		c0.8,0.8,1.83,1.17,2.93,1.17c7.17,0,14.34,0,21.58,0c2.63,0,4.32-1.68,4.32-4.24S68.27,69.17,68.27,66.61z M131.85,87.68
		c5.12,0,10.24,0,15.44,0c3.37,0,3.37,0,3.29-3.37c0-0.95-0.29-1.17-1.24-1.17c-11.56,0-23.12,0-34.68,0c-0.44,0-0.88,0-1.24,0.22
		c-0.95,0.59-1.54,1.32-1.32,2.49c0.29,1.24,1.1,1.9,2.49,1.9C120.29,87.68,126.07,87.68,131.85,87.68z M138.58,94.55
		c2.93,0,5.78,0,8.71,0c3.22,0,3.22,0,3.22-3.15c0-1.17-0.37-1.39-1.46-1.39c-6.95,0.07-13.9,0-20.85,0c-1.83,0-2.85,0.8-2.85,2.27
		c0,1.54,1.02,2.34,2.93,2.34C131.78,94.55,135.14,94.55,138.58,94.55z M31.69,92.29c0-2.12-1.46-3.95-3.51-4.46
		c-0.66-0.15-1.1-0.15-1.1,0.73c0,2.49,0,4.9,0,7.39c0,0.8,0.37,0.95,1.1,0.8C30.23,96.24,31.69,94.41,31.69,92.29z M62.57,87.68
		c2.41,0,3.37-0.66,3.44-2.19c0.07-1.68-0.95-2.34-3.44-2.34c-2.41,0-3.37,0.66-3.44,2.19C59.05,87.02,60.08,87.68,62.57,87.68z"/>
	<path class="st1" d="M155.04,73.41c-0.73-0.22-0.59-0.95-0.73-1.39c-2.19-8.41-9.44-14.85-18.07-16.1
		c-1.24-0.15-2.41-0.22-3.66-0.22c-29.48,0-58.97,0-88.45,0c-9.36,0-18.44,7.1-20.7,16.17c-0.15,0.51,0.07,1.32-0.73,1.54
		C22.4,67.92,24.3,63.17,27.74,59c3.66-4.46,8.49-6.88,14.05-7.83c0.44-0.07,0.95-0.07,1.39-0.07c30.43,0,60.94-0.07,91.38,0
		c4.68,0,8.85,1.9,12.51,4.9c4.54,3.66,7.02,8.49,7.97,14.12C155.19,71.29,155.11,72.39,155.04,73.41z"/>
	<path class="st2" d="M22.62,99.75c0.66,2.41,1.46,4.61,3.15,6.51c2.41,2.63,5.34,4.02,8.85,4.24c2.63,0.15,5.34,0,7.97,0.07
		c0.8,0,1.24-0.29,1.54-1.1c2.41-5.93,6.8-9.44,13.1-10.32c6.07-0.88,12.66,2.19,15.8,7.97c0.15,0.37,0.44,0.66,0.51,1.02
		c0.51,2.12,1.9,2.71,3.88,2.34c0,0.73,0.07,1.54,0.07,2.27c0,1.54,0,3-0.07,4.54c-2.34,0-4.61,0-6.95,0c0-0.58,0.07-1.24,0.07-1.83
		c0.07-3.44-1.02-6.44-3.73-8.71c-0.07-0.07-0.22-0.22-0.29-0.29c-3.8-3.44-9.44-3.8-13.83-0.81c-4.1,2.78-5.41,6.88-4.97,11.7
		c-4.61,0-9.22,0.15-13.83,0c-6-0.22-11.34-5.93-11.41-11.92C22.55,103.55,22.62,101.65,22.62,99.75z"/>
	<path class="st2" d="M102.58,110.58c1.97,0,4.02-0.07,6,0c0.95,0,1.46-0.22,1.9-1.24c2.34-5.85,6.8-9.29,13.02-10.17
		c6.07-0.88,12.66,2.27,15.8,7.97c0.22,0.44,0.44,0.88,0.66,1.24c1.1,2.27,1.46,2.41,3.88,2.05c5.85-0.81,9.88-4.68,11.12-10.61
		c0-0.07,0.15-0.15,0.15-0.22c-0.07,3.15,0.44,6.36-0.66,9.44c-1.76,4.9-6.44,8.19-11.63,8.27c-1.98,0-3.95,0-6-0.07
		c0-0.58,0.07-1.24,0.07-1.83c0.07-3.44-1.02-6.44-3.73-8.71c-0.07-0.07-0.22-0.22-0.29-0.29c-1.9-1.75-4.24-2.71-6.8-2.78
		c-7.61-0.29-13.17,6.15-11.85,13.68c-3.88,0-7.75-0.07-11.63-0.07C102.58,115.11,102.58,112.84,102.58,110.58z"/>
	<path class="st3" d="M47.79,117.31c-0.44-4.83,0.8-8.85,4.97-11.71c4.39-3,10.02-2.56,13.83,0.8c0.07,0.07,0.22,0.22,0.29,0.29
		c-0.07,0.37,0.07,0.73,0.22,1.1c1.02,2.27,1.39,4.54,0.95,7.02c-1.1,6.07-7.24,10.24-13.1,9.14c-1.46-0.29-2.71-1.17-4.17-1.17
		C49.1,121.33,48.52,119.36,47.79,117.31z M59.2,108.24c-3.73,0-6.88,3.15-6.88,6.88c0,3.66,3.15,6.8,6.8,6.8
		c3.8,0,6.88-3.07,6.88-6.88C66,111.45,62.86,108.24,59.2,108.24z"/>
	<path class="st3" d="M114.22,117.45c-1.32-7.54,4.24-13.97,11.85-13.68c2.56,0.07,4.9,1.02,6.8,2.78c0.07,0.07,0.22,0.22,0.29,0.29
		c-0.07,0.37,0.07,0.73,0.22,1.1c1.02,2.27,1.39,4.54,0.95,7.02c-1.1,6.07-7.24,10.24-13.1,9.15c-1.46-0.29-2.71-1.17-4.17-1.17
		C115.46,121.33,114.66,119.5,114.22,117.45z M125.48,108.24c-3.8,0-6.88,3.07-6.95,6.8c-0.07,3.66,3.07,6.88,6.73,6.88
		c3.8,0,6.88-3.07,6.95-6.8C132.29,111.45,129.14,108.31,125.48,108.24z"/>
	<path class="st4" d="M102.58,110.58c0,2.27,0,4.54-0.07,6.8c-8.34,0-16.75,0-25.09,0c0-1.54,0-3,0.07-4.53c5.78,0,11.49,0,17.27,0
		c3.44,0,5.56-2.19,5.56-5.63c0-7.54,0-15,0-22.53c1.61,1.17,2.27,2.85,2.27,4.76c0,6.44,0,12.88,0,19.31
		C102.51,109.41,102.58,109.99,102.58,110.58z"/>
	<path class="st5" d="M50.71,122.87c1.46,0,2.78,0.88,4.17,1.17c5.85,1.17,12-3,13.1-9.15c0.44-2.49,0.07-4.75-0.95-7.02
		c-0.15-0.37-0.29-0.73-0.22-1.1c2.71,2.27,3.8,5.19,3.73,8.71c0,0.59-0.07,1.24-0.07,1.83c-1.17,4.24-3.58,7.39-7.97,8.71
		C58.03,127.33,54.01,126.38,50.71,122.87z"/>
	<path class="st5" d="M117,122.87c1.46,0,2.78,0.88,4.17,1.17c5.85,1.17,12-3,13.1-9.15c0.44-2.49,0.07-4.75-0.95-7.02
		c-0.15-0.37-0.29-0.73-0.22-1.1c2.71,2.27,3.8,5.19,3.73,8.71c0,0.59-0.07,1.24-0.07,1.83c-1.17,4.24-3.58,7.39-7.98,8.71
		C124.24,127.33,120.29,126.38,117,122.87z"/>
	<path class="st6" d="M100.24,84.75c0,7.54,0,15,0,22.53c0,3.44-2.19,5.63-5.56,5.63c-5.78,0-11.49,0-17.27,0
		c0-0.73-0.07-1.54-0.07-2.27c0-6.8,0-13.61,0.07-20.41c0-4.39,2.56-7.02,7.02-7.02c3.88,0,7.68,0,11.56,0
		C97.61,83.14,99.07,83.51,100.24,84.75z M94.61,101.43c0.37,0,0.66,0,1.02,0c1.46-0.07,2.34-0.95,2.34-2.27s-0.88-2.19-2.34-2.27
		c-0.8,0-1.61-0.07-2.41,0c-1.24,0.07-2.05,1.02-2.05,2.27s0.8,2.12,2.05,2.27C93.66,101.43,94.17,101.43,94.61,101.43z"/>
	<path class="st7" d="M39.45,77.44c-1.39-1.24-1.83-2.78-1.1-4.46c0.66-1.54,0.88-3.29,1.9-4.68c0.37,0.51,0.73,0.22,1.17,0.07
		c4.24-1.17,8.49-2.34,12.73-3.51c4.24-1.17,8.41-2.49,12.73-3.44c0.95,0.51,1.39,1.32,1.39,2.34c0,0.95,0,1.9,0,2.78
		c-7.46,2.71-14.92,5.41-22.39,8.27C43.69,75.61,41.35,76.12,39.45,77.44z"/>
	<path class="st8" d="M39.45,77.44c1.98-1.32,4.24-1.83,6.44-2.63c7.46-2.78,14.92-5.49,22.39-8.27c0,2.56,0.07,5.12,0,7.68
		c0,2.56-1.76,4.24-4.32,4.24c-7.17,0-14.34,0-21.58,0C41.2,78.53,40.25,78.24,39.45,77.44z"/>
	<path class="st9" d="M131.85,87.68c-5.78,0-11.49,0-17.27,0c-1.39,0-2.19-0.73-2.49-1.9c-0.29-1.1,0.37-1.9,1.32-2.49
		c0.37-0.22,0.81-0.22,1.24-0.22c11.56,0,23.12,0,34.68,0c0.95,0,1.24,0.29,1.24,1.17c0,3.37,0.07,3.37-3.29,3.37
		C142.09,87.68,136.97,87.68,131.85,87.68z"/>
	<path class="st8" d="M118.53,74c0-3.44,0-6.88,0-10.24c0-0.88,0.29-1.17,1.17-1.17c3.58,0.07,7.1,0,10.68,0
		c2.27,0,3.59,1.32,4.17,3.44C129.21,68.66,123.87,71.29,118.53,74z"/>
	<path class="st9" d="M138.58,94.55c-3.44,0-6.88,0-10.32,0c-1.9,0-2.93-0.8-2.93-2.34c0-1.46,1.02-2.27,2.85-2.27
		c6.95,0,13.9,0,20.85,0c1.1,0,1.46,0.22,1.46,1.39c-0.07,3.15,0,3.15-3.22,3.15C144.43,94.55,141.51,94.55,138.58,94.55z"/>
	<path class="st8" d="M66.88,61.41c-4.32,0.95-8.49,2.27-12.73,3.44c-4.24,1.17-8.49,2.34-12.73,3.51c-0.44,0.15-0.8,0.37-1.17-0.07
		c0.59-1.98,1.39-3.95,2.27-5.78c0.66-1.46,2.05-2.12,3.58-2.12c6.07,0,12.14,0,18.29,0C65.35,60.24,66.22,60.61,66.88,61.41z"/>
	<path class="st8" d="M81.95,72.83c0-1.98-0.07-4.02,0-6c0-2.56,1.76-4.24,4.32-4.24c3.44,0,6.88,0.07,10.24,0
		c1.17,0,1.54,0.37,1.39,1.46c-0.07,0.66,0,1.32,0,1.98c-1.83,0.8-3.66,1.54-5.49,2.34C88.98,69.83,85.47,71.29,81.95,72.83z"/>
	<path class="st7" d="M81.95,72.83c3.51-1.54,7.02-3,10.54-4.54c1.83-0.8,3.66-1.54,5.49-2.34c0,1.61,0,3.22,0,4.9
		c-3.22,1.68-6.37,3.37-9.36,5.41c-1.68-0.15-3.51,0.51-5.05-0.73C82.69,74.8,82.03,74,81.95,72.83z"/>
	<path class="st8" d="M102.58,70.56c0-2.19,0.07-4.46,0-6.66c-0.07-1.1,0.37-1.39,1.39-1.32c2.85,0.07,5.78,0.07,8.63,0
		c1.17,0,1.54,0.37,1.39,1.46c-0.07,0.66,0,1.32-0.07,1.98c-2.05,0.66-4.02,1.68-6,2.49C106.1,69.1,104.49,70.19,102.58,70.56z"/>
	<path class="st7" d="M102.58,70.56c1.9-0.37,3.58-1.46,5.34-2.12c2.05-0.73,3.95-1.83,6-2.49c0,2.19,0,4.39,0,6.58
		c-0.95-0.07-1.76,0.29-2.63,0.51c-2.93,0.73-5.78,1.83-8.78,2.34C102.58,73.78,102.58,72.17,102.58,70.56z"/>
	<path class="st7" d="M118.53,74c5.34-2.63,10.61-5.34,15.95-7.97c0,1.54,0,3.07,0,4.61c-1.46,0.37-2.78,1.1-4.17,1.76
		c-2.93,1.24-5.78,2.63-8.63,3.95c-0.29,0-0.58,0-0.88,0C118.31,76.19,118.53,76.7,118.53,74z"/>
	<path class="st8" d="M121.68,76.26c2.85-1.32,5.71-2.71,8.63-3.95c1.39-0.59,2.71-1.39,4.17-1.76c0,0.51,0,1.02,0,1.54
		c-0.07,2.41-1.76,4.1-4.17,4.1C127.46,76.26,124.61,76.26,121.68,76.26z"/>
	<path class="st10" d="M31.69,92.29c0,2.12-1.54,3.95-3.51,4.46c-0.73,0.15-1.1,0.07-1.1-0.8c0-2.49,0-4.9,0-7.39
		c0-0.88,0.37-0.88,1.1-0.73C30.23,88.34,31.69,90.17,31.69,92.29z"/>
	<path class="st11" d="M62.57,87.68c-2.49,0-3.51-0.66-3.44-2.34c0-1.61,1.02-2.19,3.44-2.19c2.49,0,3.51,0.66,3.44,2.34
		C65.93,87.09,64.98,87.68,62.57,87.68z"/>
	<path class="st8" d="M88.54,76.26c3-1.98,6.15-3.73,9.36-5.41c0,1.46,0,2.85,0,4.32c0.07,0.88-0.29,1.17-1.17,1.17
		C94.1,76.26,91.32,76.26,88.54,76.26z"/>
	<path class="st8" d="M102.58,75.46c3-0.44,5.85-1.61,8.78-2.34c0.88-0.22,1.68-0.59,2.63-0.51c0.07,3.73,0.07,3.73-3.66,3.73
		c-2.19,0-4.46,0-6.66,0C103.02,76.26,102.44,76.34,102.58,75.46z"/>
	<path class="st5" d="M66.88,106.85c-0.07-0.07-0.22-0.22-0.29-0.29C66.66,106.63,66.74,106.7,66.88,106.85z"/>
	<path class="st5" d="M133.09,106.85c-0.07-0.07-0.22-0.22-0.29-0.29C132.95,106.63,133.02,106.7,133.09,106.85z"/>
	<path class="st12" d="M59.2,108.24c3.66,0,6.8,3.15,6.8,6.8c0,3.81-3.15,6.88-6.88,6.88c-3.66,0-6.8-3.15-6.8-6.8
		C52.32,111.38,55.4,108.24,59.2,108.24z"/>
	<path class="st12" d="M125.48,108.24c3.66,0,6.8,3.22,6.73,6.88c-0.07,3.8-3.15,6.88-6.95,6.8c-3.66,0-6.8-3.22-6.73-6.88
		C118.61,111.31,121.75,108.24,125.48,108.24z"/>
	<path class="st13" d="M94.61,101.43c-0.44,0-0.95,0-1.39,0c-1.24-0.15-2.05-1.02-2.05-2.27s0.8-2.19,2.05-2.27
		c0.8-0.07,1.61-0.07,2.41,0c1.46,0.07,2.34,0.95,2.34,2.27s-0.88,2.19-2.34,2.27C95.27,101.43,94.98,101.43,94.61,101.43z"/>
</g>
</svg>
