<?xml version="1.0" encoding="utf-8"?>
<!-- Generator: Adobe Illustrator 27.0.0, SVG Export Plug-In . SVG Version: 6.00 Build 0)  -->
<svg version="1.1" id="Layer_1" xmlns="http://www.w3.org/2000/svg" xmlns:xlink="http://www.w3.org/1999/xlink" x="0px" y="0px"
	 viewBox="0 0 177.65 177.65" style="enable-background:new 0 0 177.65 177.65;" xml:space="preserve">
<style type="text/css">
	.st0{fill:#377DE1;}
	.st1{fill:#58595B;}
	.st2{fill:#424042;}
	.st3{fill:#FAC2AC;}
	.st4{fill:#B7032D;}
	.st5{fill:#2366D2;}
	.st6{fill:#F0AB96;}
	.st7{fill:#F3911C;}
	.st8{fill:#818181;}
	.st9{fill:#FDD0BE;}
	.st10{fill:#FCA81B;}
	.st11{fill:#E53950;}
	.st12{fill:#D00128;}
	.st13{fill:#8C3F0B;}
	.st14{fill:#E59177;}
	.st15{fill:#FEFEFE;}
</style>
<g>
	<path class="st0" d="M36.72,124.64c0.04-5.51-0.42-11.04,0.23-16.53c0.93-7.83,7.83-14.54,15.61-15.46
		c3.51-0.42,7.03-0.12,10.54-0.21c0.01,0.76,0.01,1.52,0.05,2.28c0.14,3.43,2.74,6.12,6.01,6.22c0.72,0.84,1.22,2.15,2.38,2.22
		c1.97,0.12,2.66,1.43,3.4,2.89c0.3,0.59,0.81,1.09,1.24,1.61c1.35,1.61,3.17,2.51,5,3.41c-0.02,1.03-0.04,2.06-0.06,3.08
		c-1.27,0.01-2.55,0.02-3.82,0.04c-0.55-0.28-1.11-0.28-1.66,0c-7.01-0.22-12.42,3.85-13.9,10.46l-0.09-0.02
		C53.34,124.63,45.03,124.64,36.72,124.64z"/>
	<path class="st1" d="M95.53,49.08c3.26-3.38,7.29-5.25,11.85-6.02c11.24-1.89,21.52,5.71,25.21,16.07
		c0.69,1.94,1.07,3.95,1.42,5.96c-1.98,2.1-4.65,2.71-7.27,3.42c-0.85,0.17-1.7,0.34-2.54,0.51c-0.85-0.34-1.71-0.63-2.62-0.82
		c-2.14-0.44-4.21,0.01-6.29,0.38c-3.14-0.73-6.05-1.98-8.75-3.76c-2.33-1.52-4.26-3.48-6.12-5.51c-1.09-1.73-2.24-3.42-3.12-5.28
		C96.54,52.43,96.23,50.68,95.53,49.08z"/>
	<path class="st1" d="M54.94,42.8c3.02-3.19,6.77-5.05,11.03-5.8c9.93-1.75,19.76,4.04,23.83,14c0.47,1.15,0.8,2.35,1.2,3.53
		c-0.63,1.45-1.31,2.88-1.88,4.36c-0.26,0.68-0.64,1.07-1.34,1.16c-1.6,0-3.16,0-4.62-0.91c-0.76-0.47-1.73-0.54-2.66-0.62
		c-3.28-0.28-6.34,0.47-9.28,1.89c-2.89-1.11-5.62-2.53-7.95-4.59c-1.22-1.08-2.35-2.28-3.52-3.43c-1.89-2.93-3.63-5.92-4.42-9.38
		C55.31,42.92,55.07,42.87,54.94,42.8z"/>
	<path class="st2" d="M126.74,68.51c2.62-0.71,5.3-1.32,7.27-3.42c0.38,0.99,1.01,1.81,1.69,2.62c2.1,2.48,2.39,4.94,0.81,7.78
		c-0.96,1.74-1.35,3.5-0.81,5.44c0.28,1,0.85,1.8,1.5,2.57c2.47,2.91,2.7,5.02,0.93,8.37c-1.51,2.86-1.26,5.22,0.8,7.68
		c2.56,3.05,2.76,5.17,0.79,8.68c-0.06-0.15-0.12-0.29-0.18-0.44c-0.98-2.71-2.34-5.17-4.56-7.06c-0.53-0.47-0.97-1.04-1.67-1.29
		l0.01,0.01c-0.09-0.08-0.17-0.16-0.26-0.24c-2.67-1.86-5.62-2.87-8.86-2.92c-2.48-0.04-4.97-0.02-7.45-0.02
		c-0.03-1.6-0.06-3.21-0.09-4.82c0.34-0.2,0.67-0.42,1.02-0.6c4.3-2.17,7.15-5.57,8.51-10.22c0.76-2.59,0.64-5.25,0.59-7.9
		c0.92-0.28,1.52-0.73,1.44-1.86c-0.07-0.98-0.6-1.32-1.43-1.44C126.78,69.13,126.76,68.82,126.74,68.51z"/>
	<path class="st3" d="M51.38,73.83c-1.64-0.8-3.07-1.79-3.64-3.69c-0.65-2.18,0.03-4.46,1.83-5.89c0.22-0.17,0.39-0.4,0.58-0.6
		c0.41-0.11,0.83-0.23,1.24-0.34c0.46,0.14,0.98-0.05,1.39,0.31c0,2.09,0,4.18,0,6.26c0.4-1.66,0-3.35,0.42-5
		c0.33,1.41,0.78,2.79,1.5,4.06c0.82,1.46,2.07,2.22,3.73,2.18c1.2-0.03,2.39-0.19,3.59-0.23c1.64-0.05,2.91-0.77,3.89-2.06
		c0.86-1.14,1.48-2.43,1.72-3.82c0.22-1.25,1.12-1.29,1.96-1.31c0.86-0.02,1.77,0.1,1.95,1.31c0.1,0.66,0.4,1.3,0.66,1.93
		c1.04,2.46,2.7,3.9,5.55,4.01c2.38,0.09,4.72,0.58,6.55-1.51c0.18,0.53-0.23,0.95-0.24,1.44c-3.01,0.8-6,1.63-9.02,2.39
		c-0.9,0.23-1.55,0.6-1.74,1.56c-2.2-0.02-4.4-0.06-6.6-0.06c-0.73,0-1.29,0.27-1.05,1.18c0.46,1.73,2.01,2.84,3.82,2.95
		c1.37,0.08,2.33-0.72,3.42-1.27c-0.14,0.99-0.29,1.98-0.43,2.96c-0.36,1.25-0.54,2.53-0.66,3.82c-0.26,0.25-0.51,0.5-0.77,0.75
		c-2.71,0.21-5.32-0.29-7.87-1.19c-2.45-1.24-4.62-2.86-6.52-4.86c-0.66-1.08-1.57-2.08-1.93-3.26
		C54.15,74.03,53.01,73.63,51.38,73.83z"/>
	<path class="st1" d="M96.48,138.21c0.01,0.44,0.03,0.89,0.03,1.33c0,0.94-0.47,1.41-1.4,1.41c-6.75,0-13.5,0-20.25,0
		c-0.93,0-1.41-0.47-1.39-1.42c0.01-0.44,0.02-0.88,0.04-1.32c0.68,0,1.36-0.06,2.03,0c0.98,0.08,1.36-0.29,1.32-1.3
		c-0.06-1.76-0.02-3.53-0.02-5.29c0-3.33,0-3.33-3.34-3.34c-0.11-2.42-0.05-2.56,1.37-2.94c1.09-0.01,2.17-0.01,3.25-0.02
		c0.57,0.07,0.74-0.42,0.98-0.76c2.84-3.81,1.49-3.1,6.53-3.31c2.13-0.08,3.58,0.52,4.62,2.41c0.35,0.63,0.64,1.5,1.56,1.66
		c1.1,0,2.19,0,3.29,0.01l0.11,0.02l0.11-0.02c1.63,0.49,1.12,1.82,1.15,2.95c-0.72,0-1.43,0.03-2.15,0
		c-0.94-0.04-1.4,0.34-1.39,1.33c0.02,2.44,0.02,4.89,0,7.33c0,0.88,0.31,1.35,1.27,1.28C94.97,138.15,95.73,138.21,96.48,138.21z
		 M84.95,138.45c3.42,0.23,5.89-2.86,5.81-5.72c-0.1-3.51-2.55-5.79-5.78-5.86c-3.27-0.07-5.84,2.86-5.81,5.82
		C79.21,135.97,82.15,138.82,84.95,138.45z"/>
	<path class="st2" d="M84.07,70.89c0-0.49,0.42-0.92,0.24-1.44l-0.02,0.01c0.44-0.06,0.49-0.39,0.49-0.74l-0.01,0.01
		c1.58-1.48,3.15-2.96,3.02-5.41c0.88-1.02,0.87-2.28-0.01-3.27c0.7-0.09,1.08-0.48,1.34-1.16c0.57-1.48,1.25-2.91,1.88-4.36
		c1.45-1.87,2.65-3.96,4.54-5.46c0.7,1.61,1.01,3.36,1.76,4.96c0.88,1.86,2.03,3.55,3.12,5.28c-0.99,1.62-2.05,3.26-3.56,4.36
		c-2.04,1.48-2.5,3.36-2.22,5.65c0.01,0.04,0,0.08,0.01,0.12c-0.75,0.12-1.38,0.35-1.41,1.29c-0.04,0.91,0.07,1.68,1.17,1.87
		c0.24,0.04,0.4,0.24,0.48,0.48c-1.1,0.08-2.09-0.4-3.14-0.6C89.17,71.98,86.74,70.83,84.07,70.89z"/>
	<path class="st4" d="M134.99,100.73c2.22,1.89,3.59,4.35,4.56,7.06c0.05,0.15,0.12,0.29,0.18,0.44c1.11,5.83,0.37,11.72,0.53,17.58
		c0.05,1.83-1.71,3.48-3.52,3.67c-0.16,0.02-0.32,0.03-0.48,0.03c-9.24-0.01-18.49-0.01-27.73-0.02c0.02-0.81,0.03-1.62,0.05-2.43
		c8.29,0,16.58-0.07,24.87,0.04c2.35,0.03,4.56-2.17,4.48-4.48c-0.14-3.95-0.02-7.9-0.04-11.85c-0.01-2.69-0.58-5.24-1.77-7.67
		C135.73,102.32,135.11,101.64,134.99,100.73z"/>
	<path class="st2" d="M51.4,63.31c-0.41,0.11-0.83,0.23-1.24,0.34c0-0.48-0.05-0.97,0-1.45c0.08-0.85-0.04-1.35-1.06-1.58
		c-1.03-0.22-1.54-1.16-1.44-2.24c0.57-6.07,2.84-11.34,7.29-15.58c0.13,0.07,0.37,0.12,0.4,0.21c0.79,3.46,2.53,6.45,4.42,9.38
		c-1.71,2.59-3.77,4.83-6.29,6.63c-0.33,0.23-0.67,0.46-0.59,0.95c-0.74,0.15-1.72-0.16-2.05,0.84
		C50.52,61.7,50.57,62.62,51.4,63.31z"/>
	<path class="st5" d="M36.72,124.64c8.31,0,16.62-0.01,24.93-0.01c-0.32,1.6-0.23,3.23-0.23,4.84c-6.83,0.01-13.65,0.05-20.48,0
		C38.42,129.46,36.61,127.28,36.72,124.64z"/>
	<path class="st6" d="M63.15,83.98c2.55,0.9,5.16,1.4,7.87,1.19c-0.68,0.83-1.62,1.59-0.83,2.86c-0.26,0.96-0.61,1.91-0.75,2.88
		c-0.14,1.01-0.63,2.17,0.53,2.96c1.1,0.75,1.93-0.09,2.83-0.53c0.04-0.02,0.07-0.03,0.11-0.05c0.02,0.6,0.05,1.19,0.06,1.79
		c0.01,0.32-0.02,0.58-0.42,0.74c-2.98,1.14-3.49,1.93-3.4,5.13c-3.27-0.1-5.88-2.79-6.01-6.22c-0.03-0.76-0.03-1.52-0.05-2.28
		C63.12,89.62,63.14,86.8,63.15,83.98z"/>
	<path class="st7" d="M61.42,129.48c0-1.62-0.1-3.24,0.23-4.84l0.09,0.02c4.35,0,8.71-0.01,13.06-0.01c0.02,0.24,0.04,0.47,0.06,0.7
		c-1.41,0.37-1.48,0.52-1.37,2.94c-0.04,0.42-0.07,0.83-0.11,1.25C69.4,129.51,65.41,129.49,61.42,129.48z"/>
	<path class="st7" d="M108.58,127.06c-0.02,0.81-0.03,1.62-0.05,2.43c-0.11,0.03-0.21,0.06-0.31,0.09
		c-3.48-0.02-6.96-0.09-10.44-0.03c-1.03,0.02-1.35-0.36-1.29-1.28c-0.03-1.12,0.48-2.46-1.15-2.95c-0.05-0.06-0.11-0.13-0.17-0.19
		c0-0.17,0-0.33,0-0.5c4.31,0,8.62,0,12.93-0.01c0.07,0.01,0.14,0.01,0.21,0.01C108.4,125.45,108.49,126.26,108.58,127.06z"/>
	<path class="st8" d="M96.48,128.27c-0.05,0.92,0.26,1.29,1.29,1.28c3.48-0.06,6.96,0.01,10.44,0.03c-3.55,0.03-7.1,0.09-10.64,0.07
		c-0.85-0.01-1.07,0.26-1.06,1.09c0.04,2.49-0.02,4.98-0.04,7.47c-0.75-0.01-1.51-0.06-2.27-0.01c-0.96,0.07-1.28-0.4-1.27-1.28
		c0.01-2.45,0.02-4.89,0-7.33c-0.01-0.99,0.45-1.37,1.39-1.33C95.05,128.3,95.76,128.27,96.48,128.27z"/>
	<path class="st8" d="M73.39,129.53c0.04-0.42,0.07-0.83,0.11-1.25c3.34,0.01,3.34,0.01,3.34,3.34c0,1.76-0.04,3.53,0.02,5.29
		c0.04,1.01-0.34,1.39-1.32,1.3c-0.67-0.06-1.35,0-2.03,0C73.47,135.31,73.43,132.42,73.39,129.53z"/>
	<path class="st2" d="M51.38,73.83c1.63-0.2,2.77,0.21,3.33,2.03c0.36,1.18,1.27,2.18,1.93,3.26
		C54.26,77.98,52.56,76.16,51.38,73.83z"/>
	<path class="st9" d="M69.16,100.95c-0.1-3.19,0.41-3.99,3.4-5.13c0.4-0.16,0.43-0.42,0.42-0.74c-0.01-0.6-0.04-1.19-0.06-1.79
		c1.89-1.41,3.62-2.97,4.87-5c0.15,0.01,0.3,0.03,0.45,0.04c0.25,0.31,0.49,0.64,0.77,0.92c5.03,5.01,10.97,6.66,17.83,4.87
		c-0.17,1.15,0.21,1.88,1.47,1.95c0.22,0.01,0.44,0.16,0.66,0.25c2.86,2.22,1.98,6.15-0.61,6.8c-1.89,0.47-2.73,1.51-3.45,3.02
		c-0.1,0.21-0.27,0.4-0.41,0.59c-1.45,2.1-3.57,3.27-5.77,4.35c-1.42,0.18-2.8,0.67-4.25,0.49c-1.1-0.14-2.2-0.32-3.29-0.48
		c-1.82-0.9-3.65-1.8-5-3.41c-0.44-0.52-0.94-1.02-1.24-1.61c-0.74-1.46-1.43-2.76-3.4-2.89C70.38,103.1,69.88,101.79,69.16,100.95z
		 M85.16,103.11c-1.12,0-2.24-0.02-3.36,0c-1.22,0.02-1.65,0.64-1.28,1.81c0.55,1.7,2.74,3.26,4.54,3.24
		c2.09-0.03,4.1-1.5,4.65-3.39c0.31-1.09-0.05-1.62-1.19-1.65C87.4,103.09,86.28,103.11,85.16,103.11z M80.31,97.52
		c-0.01-0.86-0.77-1.62-1.63-1.55c-0.92,0.07-1.45,0.63-1.52,1.54c-0.07,0.85,0.72,1.62,1.57,1.63
		C79.57,99.15,80.32,98.38,80.31,97.52z M89.59,97.36c-0.01,1.04,0.75,1.85,1.59,1.77c0.91-0.09,1.47-0.6,1.51-1.56
		c0.03-0.88-0.72-1.67-1.58-1.6C90.19,96.05,89.66,96.58,89.59,97.36z M96.97,96.37c-0.04-0.01-0.08-0.02-0.12-0.03
		c0,1.35,0,2.7,0,4.05c0.04,0,0.08,0,0.12,0C96.97,99.05,96.97,97.71,96.97,96.37z"/>
	<path class="st10" d="M74.8,124.64c-4.35,0-8.71,0.01-13.06,0.01c1.48-6.6,6.89-10.67,13.9-10.46c0,3.26,0,6.52,0,9.78
		C75.21,124.01,74.92,124.22,74.8,124.64z"/>
	<path class="st10" d="M91.83,125.32c-0.93-0.15-1.21-1.02-1.56-1.66c-1.04-1.88-2.49-2.49-4.62-2.41c-5.04,0.2-3.7-0.51-6.53,3.31
		c-0.25,0.33-0.41,0.83-0.98,0.76c0.03-0.63,0.06-1.27-0.81-1.34c0-3.26-0.01-6.52-0.01-9.78c1.27-0.01,2.55-0.02,3.82-0.04
		c0.01,0.8,0.01,1.6,0.04,2.41c0.08,1.94,1.6,3.58,3.42,3.7c2.11,0.14,3.68-1.13,4.08-3.21c0.18-0.96,0.08-1.92,0.17-2.87
		c1.29,0.01,2.57,0.02,3.85,0.03c0,3.25,0,6.51-0.01,9.76C91.8,124.05,91.79,124.67,91.83,125.32z"/>
	<path class="st3" d="M88.82,114.19c-0.09,0.96,0.01,1.91-0.17,2.87c-0.4,2.09-1.96,3.35-4.08,3.21c-1.82-0.12-3.34-1.77-3.42-3.7
		c-0.03-0.8-0.03-1.6-0.04-2.41c0.02-1.03,0.04-2.06,0.06-3.08c1.1,0.16,2.19,0.34,3.29,0.48c1.45,0.18,2.84-0.31,4.25-0.49
		C88.76,112.11,88.79,113.15,88.82,114.19z"/>
	<path class="st1" d="M77.3,114.2c0,3.26,0.01,6.52,0.01,9.78c-0.56,0.17-1.11,0.17-1.67,0c0-3.26,0-6.52,0-9.78
		C76.19,113.92,76.74,113.92,77.3,114.2z"/>
	<path class="st7" d="M94.87,73.07c-0.08-0.24-0.24-0.44-0.48-0.48c-1.1-0.19-1.2-0.96-1.17-1.87c0.04-0.94,0.67-1.17,1.41-1.29
		c0.79-0.04,1.62,0.18,2.36-0.22c3.15-1.71,6.56-1.75,9.6-0.31c3.15,1.49,5.85,1.37,8.69-0.34c2.08-0.37,4.15-0.82,6.29-0.38
		c0.91,0.19,1.77,0.48,2.62,0.82c0.77,0.75,1.74,0.3,2.61,0.42c0.84,0.12,1.37,0.46,1.43,1.44c0.07,1.13-0.53,1.58-1.44,1.86
		c-0.76-0.03-0.78,0.58-0.87,1.07c-0.28,1.35-0.69,2.65-1.36,3.86c-0.79,1.42-1.98,2.21-3.61,2.16c-0.92-0.03-1.83-0.2-2.75-0.2
		c-2.21,0.01-3.7-1.06-4.72-2.95c-0.44-0.82-0.79-1.69-0.99-2.59c-0.13-0.6-0.39-0.89-0.97-1.05c-1.46-0.4-2.23-0.01-2.67,1.43
		c-0.6,1.97-1.34,4.12-3.42,4.67c-2.78,0.75-5.81,1.69-8.35-0.86C96.53,76.46,97.2,74.11,94.87,73.07z M101.61,69.17
		c-0.54-0.03-1.44,0.09-2.32,0.41c-1.73,0.61-2.64,1.93-2.43,3.55c0.43,3.23,1.76,5.13,3.71,5.26c0.36,0.02,0.72,0.02,1.08-0.01
		c0.68-0.05,1.35-0.17,2.03-0.2c0.99-0.05,1.77-0.5,2.38-1.23c1.18-1.41,1.68-3.09,1.75-4.9c0.04-0.92-0.34-1.59-1.26-1.97
		C105.08,69.48,103.57,69.18,101.61,69.17z M120.05,78.4c2.02,0.05,2.9-0.52,3.7-2.4c0.35-0.82,0.6-1.66,0.74-2.54
		c0.3-1.91-0.44-3.22-2.25-3.84c-2.34-0.79-4.66-0.52-6.92,0.3c-1.49,0.54-1.95,1.3-1.64,2.88C114.6,77.46,115.98,78.31,120.05,78.4
		z"/>
	<path class="st3" d="M115.28,68.58c-2.83,1.71-5.54,1.83-8.69,0.34c-3.04-1.44-6.44-1.4-9.6,0.31c-0.74,0.4-1.57,0.18-2.36,0.22
		c0-0.04,0-0.08-0.01-0.12c-0.28-2.29,0.18-4.17,2.22-5.65c1.51-1.09,2.57-2.74,3.56-4.36c1.87,2.03,3.8,3.98,6.12,5.51
		C109.23,66.59,112.14,67.84,115.28,68.58z"/>
	<path class="st3" d="M126.8,69.44c-0.87-0.12-1.84,0.33-2.61-0.42c0.85-0.17,1.7-0.34,2.54-0.51
		C126.76,68.82,126.78,69.13,126.8,69.44z"/>
	<path class="st7" d="M51.4,63.31c-0.83-0.69-0.87-1.61-0.58-2.51c0.32-0.99,1.31-0.68,2.05-0.84c1.2,0.23,2.13-0.5,3.18-0.83
		c3.71-1.19,7.34-0.77,10.84,0.86c1.4,0.65,2.79,1.27,4.33,0.42c2.93-1.43,5.99-2.18,9.28-1.89c0.93,0.08,1.9,0.14,2.66,0.62
		c1.46,0.9,3.02,0.9,4.62,0.91c0.89,0.99,0.89,2.24,0.01,3.27c-0.45,0.12-0.95-0.03-1.36,0.28c-0.21,0.09-0.26,0.26-0.24,0.47
		c-0.48,1.55-0.95,3.1-1.42,4.65l0.01-0.01c-0.33,0.13-0.47,0.4-0.49,0.74l0.02-0.01c-1.83,2.1-4.17,1.61-6.55,1.51
		c-2.85-0.11-4.51-1.55-5.55-4.01c-0.26-0.63-0.56-1.27-0.66-1.93c-0.19-1.21-1.1-1.33-1.95-1.31c-0.83,0.02-1.73,0.06-1.96,1.31
		c-0.24,1.39-0.86,2.68-1.72,3.82c-0.97,1.29-2.25,2.01-3.89,2.06c-1.2,0.04-2.39,0.2-3.59,0.23c-1.67,0.04-2.91-0.72-3.73-2.18
		c-0.72-1.27-1.16-2.64-1.5-4.06c-0.17-0.41-0.03-0.93-0.42-1.27C52.38,63.26,51.85,63.45,51.4,63.31z M80.22,69.67
		c1.29,0.08,2.44-0.6,3.17-2.05c0.51-1.01,0.87-2.08,1.08-3.18c0.41-2.18-0.49-3.74-2.62-4.35c-2.62-0.77-5.21-0.45-7.74,0.55
		c-1.01,0.4-1.4,1.12-1.38,2.15c0.04,1.87,0.61,3.56,1.7,5.06c0.61,0.84,1.42,1.42,2.47,1.55C77.9,69.52,78.9,69.57,80.22,69.67z
		 M60.28,59.68c-0.56,0.03-1.12,0-1.67,0.09c-1.59,0.25-3.19,0.71-3.72,2.41c-0.71,2.29,0.18,4.38,1.44,6.24
		c1,1.47,2.59,1.36,4.14,1.1c0.31-0.05,0.64-0.08,0.95-0.07c1.7,0.05,2.87-0.79,3.72-2.2c0.76-1.26,1.14-2.65,1.29-4.1
		c0.14-1.41-0.29-2.1-1.6-2.62C63.38,59.96,61.86,59.66,60.28,59.68z"/>
	<path class="st3" d="M71.22,60.42c-1.54,0.85-2.93,0.23-4.33-0.42c-3.51-1.63-7.14-2.05-10.84-0.86c-1.05,0.34-1.99,1.06-3.18,0.83
		c-0.08-0.49,0.26-0.71,0.59-0.95c2.53-1.8,4.59-4.04,6.29-6.63c1.17,1.15,2.29,2.34,3.52,3.43C65.6,57.89,68.33,59.31,71.22,60.42z
		"/>
	<path class="st11" d="M88.82,114.19c-0.03-1.04-0.06-2.08-0.1-3.11c2.2-1.08,4.33-2.25,5.77-4.35c0.13-0.2,0.31-0.38,0.41-0.59
		c0.72-1.51,1.56-2.55,3.45-3.02c2.58-0.64,3.47-4.58,0.61-6.8c1.91-0.01,3.82-0.03,5.73-0.04c0.01,0.6,0.02,1.2,0.04,1.81
		c0.11,2.95,2.13,5.22,5.23,5.84c2.36,0.47,5.06-1.07,6.21-3.51c0.62-1.32,0.53-2.73,0.59-4.13c2.48,0.01,4.97-0.01,7.45,0.02
		c3.25,0.05,6.2,1.06,8.86,2.92c0.09,0.08,0.17,0.16,0.26,0.24l-0.01-0.01c-0.07,0.38,0.1,0.71,0.27,1.03
		c1.42,2.7,1.92,5.59,1.9,8.61c-0.03,3.63-0.12,7.27,0.03,10.89c0.11,2.59-2.1,4.75-4.63,4.7c-7.53-0.12-15.06-0.04-22.59-0.04
		c-0.07,0-0.14-0.01-0.21-0.01c-0.04-0.24-0.06-0.48-0.12-0.71c-1.58-5.76-6.99-10.21-13.63-9.7c-0.55,0-1.11,0-1.66,0
		C91.39,114.21,90.11,114.2,88.82,114.19z"/>
	<path class="st3" d="M97.07,78.27c2.54,2.54,5.57,1.6,8.35,0.86c2.08-0.56,2.82-2.71,3.42-4.67c0.44-1.44,1.21-1.83,2.67-1.43
		c0.58,0.16,0.84,0.46,0.97,1.05c0.2,0.9,0.55,1.76,0.99,2.59c1.02,1.9,2.51,2.96,4.72,2.95c0.92,0,1.83,0.17,2.75,0.2
		c1.64,0.05,2.83-0.73,3.61-2.16c0.67-1.21,1.08-2.51,1.36-3.86c0.1-0.49,0.12-1.1,0.87-1.07c0.04,2.65,0.17,5.31-0.59,7.9
		c-1.37,4.65-4.22,8.04-8.51,10.22c-0.35,0.18-0.68,0.4-1.02,0.6c-2.07,0.56-4.13,1.05-6.3,1.01c-1.93-0.04-3.74-0.57-5.59-1
		c-1.56-0.93-3.21-1.72-4.6-2.91c-0.17-0.18-0.34-0.36-0.51-0.54c0.5-0.94,0.33-1.73-0.47-2.43c-0.41-0.36-0.75-0.8-1.13-1.21
		c-0.12-1.28-0.3-2.54-0.62-3.79C97.32,79.81,97.2,79.04,97.07,78.27z M110.69,87.13c2.36,0,4.12-1.22,4.86-3.38
		c0.32-0.92-0.08-1.67-1.03-1.69c-2.52-0.05-5.05-0.05-7.57,0c-1.02,0.02-1.38,0.65-1.07,1.64
		C106.53,85.83,108.35,87.12,110.69,87.13z"/>
	<path class="st6" d="M104.77,91.46c1.84,0.44,3.66,0.97,5.59,1c2.18,0.04,4.24-0.45,6.3-1.01c0.03,1.6,0.06,3.21,0.09,4.82
		c-0.06,1.39,0.03,2.8-0.59,4.13c-1.15,2.44-3.85,3.98-6.21,3.51c-3.09-0.62-5.12-2.88-5.23-5.84c-0.02-0.6-0.03-1.2-0.04-1.81
		C104.72,94.67,104.74,93.07,104.77,91.46z"/>
	<path class="st12" d="M108.3,124.65c7.53,0,15.06-0.08,22.59,0.04c2.52,0.04,4.74-2.12,4.63-4.7c-0.16-3.62-0.07-7.26-0.03-10.89
		c0.03-3.03-0.48-5.92-1.9-8.61c-0.17-0.32-0.33-0.65-0.27-1.03c0.69,0.25,1.14,0.82,1.67,1.29c0.11,0.91,0.73,1.59,1.12,2.37
		c1.19,2.42,1.76,4.98,1.77,7.67c0.02,3.95-0.09,7.91,0.04,11.85c0.08,2.31-2.13,4.51-4.48,4.48c-8.29-0.1-16.58-0.04-24.87-0.04
		C108.49,126.26,108.4,125.45,108.3,124.65z"/>
	<path class="st13" d="M97.07,78.27c0.13,0.77,0.25,1.54,0.37,2.31c-8.33,0.01-16.66,0.02-24.99,0.03c0.14-0.99,0.29-1.98,0.43-2.96
		c0.14-0.93,0.28-1.86,0.42-2.79c0.2-0.96,0.84-1.33,1.74-1.56c3.02-0.76,6.01-1.59,9.02-2.39c2.67-0.06,5.1,1.09,7.66,1.58
		c1.05,0.2,2.04,0.69,3.14,0.6C97.2,74.11,96.53,76.46,97.07,78.27z"/>
	<path class="st13" d="M98.06,84.37c0.38,0.4,0.72,0.85,1.13,1.21c0.79,0.7,0.96,1.49,0.47,2.43c-0.56,0.03-1.11,0.09-1.67,0.1
		c-6.12,0.01-12.24,0-18.37,0.01c-0.47,0-0.97-0.15-1.38,0.21c-0.15-0.01-0.3-0.03-0.45-0.04c-0.38-0.32-0.84-0.18-1.27-0.18
		c-2.11-0.04-4.22-0.05-6.33-0.08c-0.79-1.27,0.15-2.02,0.83-2.86c0.26-0.25,0.51-0.5,0.77-0.75c7.56,0.01,15.12,0.02,22.68,0.02
		C95.66,84.43,96.86,84.39,98.06,84.37z"/>
	<path class="st10" d="M98.06,84.37c-1.2,0.02-2.4,0.07-3.59,0.07c-7.56,0-15.12-0.01-22.68-0.02c0.12-1.29,0.31-2.57,0.66-3.82
		c8.33-0.01,16.66-0.02,24.99-0.03C97.76,81.82,97.94,83.09,98.06,84.37z"/>
	<path class="st14" d="M73.31,74.84c-0.14,0.93-0.28,1.86-0.42,2.79c-1.09,0.55-2.05,1.36-3.42,1.27c-1.8-0.11-3.35-1.22-3.82-2.95
		c-0.24-0.91,0.32-1.18,1.05-1.18C68.91,74.78,71.11,74.82,73.31,74.84z"/>
	<path class="st6" d="M52.79,63.62c0.39,0.34,0.25,0.85,0.42,1.27c-0.42,1.65-0.02,3.34-0.42,5C52.79,67.79,52.79,65.71,52.79,63.62
		z"/>
	<path class="st8" d="M84.95,138.45c-2.8,0.37-5.74-2.48-5.78-5.76c-0.03-2.96,2.54-5.89,5.81-5.82c3.23,0.07,5.68,2.35,5.78,5.86
		C90.84,135.59,88.37,138.68,84.95,138.45z M84.97,128.22c-2.54,0-4.53,1.96-4.53,4.48c0,2.53,1.97,4.53,4.47,4.55
		c2.52,0.02,4.66-2.09,4.62-4.55C89.48,130.17,87.5,128.23,84.97,128.22z"/>
	<path class="st15" d="M91.83,125.32c-0.04-0.65-0.03-1.28,0.85-1.35c0.56,0.18,1.11,0.15,1.67,0c0.41,0.05,0.72,0.23,0.82,0.66
		c0,0.17,0,0.33,0,0.5c-0.04,0.06-0.06,0.12-0.05,0.19C94.02,125.33,92.92,125.33,91.83,125.32z"/>
	<path class="st15" d="M75.64,123.98c0.56,0.17,1.11,0.17,1.67,0c0.87,0.08,0.84,0.71,0.81,1.34c-1.09,0.01-2.17,0.01-3.25,0.02
		c-0.02-0.24-0.04-0.47-0.07-0.7C74.92,124.22,75.21,124.01,75.64,123.98z"/>
	<path class="st10" d="M95.11,125.33c0-0.07,0.01-0.13,0.05-0.19c0.05,0.06,0.11,0.13,0.17,0.19l-0.11,0.02L95.11,125.33z"/>
	<path class="st3" d="M84.77,68.73c0.48-1.55,0.95-3.1,1.42-4.65c0,0.73,0,1.45,0,2.18c0.08,0,0.16,0,0.24,0c0-0.88,0-1.76,0-2.65
		c0.41-0.32,0.91-0.17,1.36-0.28C87.91,65.76,86.35,67.25,84.77,68.73z"/>
	<path class="st3" d="M84.29,69.46c0.02-0.34,0.15-0.61,0.49-0.74C84.77,69.07,84.73,69.39,84.29,69.46z"/>
	<path class="st2" d="M70.19,88.02c2.11,0.03,4.22,0.04,6.33,0.08c0.42,0.01,0.88-0.14,1.27,0.18c-1.26,2.03-2.99,3.59-4.87,5
		c-0.04,0.02-0.07,0.03-0.11,0.05c-0.9,0.44-1.73,1.28-2.83,0.53c-1.16-0.79-0.67-1.95-0.53-2.96
		C69.58,89.93,69.93,88.98,70.19,88.02z"/>
	<path class="st10" d="M95.16,124.64c-0.1-0.44-0.41-0.61-0.82-0.66c0-3.25,0-6.5,0-9.76c6.64-0.51,12.05,3.94,13.63,9.7
		c0.06,0.23,0.08,0.47,0.12,0.71C103.78,124.63,99.47,124.64,95.16,124.64z"/>
	<path class="st1" d="M78.23,88.32c0.42-0.36,0.92-0.21,1.38-0.21c6.12-0.01,12.24,0,18.37-0.01c0.56,0,1.11-0.06,1.67-0.1
		c0.17,0.18,0.34,0.36,0.51,0.54c-0.41,0.81,0.12,1.53,0.3,2.24c0.29,1.12-0.1,1.79-1.02,2.23c-0.85,0.41-1.74,0.74-2.62,1.1
		c-6.86,1.79-12.8,0.14-17.83-4.87C78.71,88.96,78.49,88.63,78.23,88.32z"/>
	<path class="st14" d="M85.16,103.11c1.12,0,2.24-0.02,3.36,0.01c1.14,0.03,1.5,0.56,1.19,1.65c-0.55,1.89-2.56,3.36-4.65,3.39
		c-1.81,0.03-3.99-1.53-4.54-3.24c-0.38-1.17,0.05-1.79,1.28-1.81C82.92,103.09,84.04,103.11,85.16,103.11z"/>
	<path class="st2" d="M96.83,94.12c0.87-0.36,1.77-0.69,2.62-1.1c0.93-0.44,1.31-1.11,1.02-2.23c-0.18-0.71-0.71-1.43-0.3-2.24
		c1.39,1.19,3.04,1.99,4.6,2.91c-0.03,1.6-0.06,3.21-0.09,4.81c-1.91,0.01-3.82,0.03-5.73,0.04c-0.22-0.09-0.44-0.24-0.66-0.25
		C97.04,95.99,96.66,95.27,96.83,94.12z"/>
	<path class="st13" d="M80.31,97.52c0.01,0.86-0.74,1.62-1.58,1.62c-0.85,0-1.64-0.78-1.57-1.63c0.07-0.91,0.6-1.47,1.52-1.54
		C79.54,95.9,80.3,96.66,80.31,97.52z"/>
	<path class="st13" d="M89.59,97.36c0.07-0.78,0.6-1.31,1.52-1.39c0.86-0.07,1.62,0.71,1.58,1.6c-0.04,0.97-0.6,1.48-1.51,1.56
		C90.34,99.21,89.58,98.4,89.59,97.36z"/>
	<path class="st6" d="M96.97,96.37c0,1.34,0,2.68,0,4.02c-0.04,0-0.08,0-0.12,0c0-1.35,0-2.7,0-4.05
		C96.89,96.35,96.93,96.36,96.97,96.37z"/>
	<path class="st1" d="M94.34,114.22c0,3.25,0,6.5,0,9.76c-0.56,0.16-1.11,0.18-1.67,0c0-3.25,0-6.51,0.01-9.76
		C93.23,114.22,93.79,114.22,94.34,114.22z"/>
	<path class="st2" d="M101.61,69.17c1.96,0.01,3.47,0.31,4.93,0.91c0.92,0.38,1.3,1.04,1.26,1.97c-0.07,1.81-0.58,3.49-1.75,4.9
		c-0.61,0.73-1.39,1.19-2.38,1.23c-0.68,0.03-1.35,0.15-2.03,0.2c-0.36,0.03-0.72,0.03-1.08,0.01c-1.95-0.13-3.28-2.03-3.71-5.26
		c-0.21-1.62,0.7-2.94,2.43-3.55C100.16,69.27,101.06,69.15,101.61,69.17z"/>
	<path class="st2" d="M120.05,78.4c-4.07-0.08-5.45-0.94-6.37-5.6c-0.31-1.58,0.15-2.34,1.64-2.88c2.27-0.82,4.58-1.09,6.92-0.3
		c1.81,0.62,2.55,1.93,2.25,3.84c-0.14,0.88-0.4,1.72-0.74,2.54C122.95,77.87,122.07,78.44,120.05,78.4z"/>
	<path class="st2" d="M80.22,69.67c-1.32-0.11-2.31-0.16-3.3-0.28c-1.05-0.13-1.86-0.71-2.47-1.55c-1.09-1.5-1.65-3.19-1.7-5.06
		c-0.02-1.03,0.37-1.75,1.38-2.15c2.53-1,5.11-1.31,7.74-0.55c2.12,0.62,3.02,2.17,2.62,4.35c-0.21,1.1-0.57,2.17-1.08,3.18
		C82.66,69.07,81.51,69.76,80.22,69.67z"/>
	<path class="st2" d="M60.28,59.68c1.58-0.02,3.1,0.27,4.56,0.86c1.3,0.52,1.73,1.2,1.6,2.62c-0.14,1.45-0.52,2.84-1.29,4.1
		c-0.85,1.4-2.02,2.25-3.72,2.2c-0.32-0.01-0.64,0.02-0.95,0.07c-1.55,0.26-3.14,0.36-4.14-1.1c-1.27-1.86-2.15-3.95-1.44-6.24
		c0.53-1.7,2.13-2.16,3.72-2.41C59.15,59.69,59.72,59.71,60.28,59.68z"/>
	<path class="st14" d="M86.43,63.6c0,0.88,0,1.76,0,2.65c-0.08,0-0.16,0-0.24,0c0-0.73,0-1.45,0-2.18
		C86.17,63.87,86.22,63.69,86.43,63.6z"/>
	<path class="st14" d="M110.69,87.13c-2.34,0-4.16-1.3-4.81-3.44c-0.31-0.99,0.05-1.62,1.07-1.64c2.52-0.05,5.05-0.05,7.57,0
		c0.95,0.02,1.35,0.77,1.03,1.69C114.81,85.91,113.05,87.13,110.69,87.13z"/>
	<path class="st10" d="M84.97,128.22c2.53,0,4.52,1.95,4.56,4.47c0.04,2.46-2.1,4.58-4.62,4.55c-2.5-0.02-4.47-2.02-4.47-4.55
		C80.44,130.19,82.42,128.22,84.97,128.22z"/>
</g>
</svg>
