<?xml version="1.0" encoding="utf-8"?>
<!-- Generator: Adobe Illustrator 24.2.3, SVG Export Plug-In . SVG Version: 6.00 Build 0)  -->
<svg version="1.1" id="Layer_1" xmlns="http://www.w3.org/2000/svg" xmlns:xlink="http://www.w3.org/1999/xlink" x="0px" y="0px"
	 viewBox="0 0 50 50" style="enable-background:new 0 0 50 50;" xml:space="preserve">
<style type="text/css">
	.st0{fill:#FFFFFF;}
</style>
<g>
	<path class="st0" d="M38.4,26.2c0.4,0.3,0.8,0.5,1.2,0.6c-0.7,6.2-6.3,12.3-14.1,12.1c-7.9-0.2-13-6.5-13.5-12.2
		c0.4,0.2,0.9,0.3,1.3,0.2c0.7,3.8,2.6,6.7,5.8,8.8c2.3,1.5,4.9,2.1,7.6,1.9c3-0.2,5.7-1.4,7.9-3.5C36.8,31.9,38,29.3,38.4,26.2z"/>
	<path class="st0" d="M38.9,20.2c-0.2,0.3-0.5,0.5-0.7,0.7c0,0-0.1-0.1-0.1-0.1c-0.2-0.3-0.4-0.6-0.7-0.8c-0.1-0.1-0.1-0.2-0.2-0.3
		c-0.6-1.4-1.5-2.6-2.6-3.6c-1.9-1.9-4.2-3.1-6.9-3.5c-2.7-0.4-5.2,0-7.6,1.2c-2.5,1.2-4.3,3.1-5.6,5.5c0,0-0.1,0.1-0.1,0.1
		c0,0,0,0,0,0c-0.5,0-0.9,0-1.4,0c0.1-0.7,1.7-3,2.7-4.1c1.2-1.2,2.5-2.2,4.1-2.9c1.5-0.7,3.1-1.1,4.8-1.3
		C31.6,10.6,37,15,38.9,20.2z"/>
	<path class="st0" d="M30.8,22.3c0.2,0.2,0.3,0.3,0.4,0.5c0.4,0.5,0.5,1.1,0.5,1.7c0,0.4,0,0.8-0.1,1.3c0,0.1,0,0.3,0,0.4
		c0.1,0.3,0.3,0.5,0.6,0.5c0.2,0,0.3-0.1,0.5-0.1c0,0,0,0.1,0,0.1c0.1,0.3,0.1,0.5,0.2,0.8c0,0.1,0,0.2-0.1,0.3
		c-0.2,0.1-0.5,0.3-0.7,0.3c-0.4,0.1-0.9,0.1-1.3-0.1c-0.7-0.2-1.2-0.8-1.1-1.6c0-0.4,0.1-0.9,0.1-1.3c0-0.3,0.1-0.7,0.1-1
		c0-0.5-0.2-0.9-0.6-1.2c-0.1-0.1-0.3-0.2-0.5-0.3c-0.2,0.6-0.3,1.1-0.4,1.7c-0.1,0.5-0.3,1.1-0.4,1.6c-0.6,0-1.2,0-1.8,0
		c0.3-1.1,0.6-2.3,0.9-3.4c0.3-1.1,0.6-2.2,0.9-3.4c-0.4,0.1-0.8,0.3-1.3,0.2c0.1-0.4,0.2-0.8,0.3-1.1c0.1,0,0.2,0,0.2,0
		c0.6,0,1-0.3,1.3-0.7c0.1-0.1,0.2-0.2,0.4-0.2c0.6,0,1.3,0,1.9,0c0.3,0,0.6,0.1,0.9,0.2c0.8,0.4,1.3,1,1.3,1.9
		c0,0.8-0.3,1.5-0.9,2.1C31.8,21.9,31.3,22.2,30.8,22.3z M29.3,21.3c0.2,0,0.3,0,0.5,0c0.6,0,1.1-0.3,1.4-0.9c0.2-0.3,0.2-0.7,0.2-1
		c-0.1-0.7-0.7-1-1.3-0.9C29.8,19.5,29.5,20.4,29.3,21.3z"/>
	<path class="st0" d="M2.7,18.2c0.1,0,0.1,0,0.2,0c0.6,0,1-0.3,1.4-0.7c0.1-0.1,0.2-0.2,0.4-0.2c0.4,0,0.8,0,1.1,0
		c0.1,0,0.1,0,0.2,0c-0.3,1.1-0.6,2.3-0.9,3.4c0.1,0,0.1,0,0.2,0c0.4,0,0.8,0,1.2,0c0.2,0,0.2,0,0.3-0.2c0.3-1,0.5-2,0.8-3
		c0-0.1,0-0.1,0.1-0.2c0.6,0,1.2,0,1.8,0C8.7,20.2,8,23.1,7.2,26c-0.6,0-1.2,0-1.8,0c0.3-1.3,0.7-2.5,1-3.8c-0.2-0.1-1.3-0.1-1.6,0
		c-0.3,1.3-0.7,2.5-1,3.8c-0.6,0-1.2,0-1.8,0c0-0.1,0-0.1,0-0.2c0.4-1.6,0.9-3.3,1.3-4.9c0.1-0.5,0.3-1,0.4-1.5c0-0.1,0-0.1,0-0.2
		c-0.4,0.2-0.8,0.2-1.3,0.2C2.5,19,2.6,18.6,2.7,18.2z"/>
	<path class="st0" d="M44.2,17.3c0.6,0,1.2,0,1.8,0c-0.3,1.2-0.6,2.3-0.9,3.4c0,0,0,0,0,0c0.1,0,0.1-0.1,0.2-0.1
		c0.5-0.4,1.1-0.5,1.7-0.4c0.7,0.2,1.2,0.8,1.1,1.6c-0.1,0.5-0.3,0.9-0.7,1.3c-0.4,0.4-0.8,0.6-1.3,0.8c-0.1,0-0.1,0-0.2,0
		c0,0,0,0,0,0c0,0,0,0,0,0.1c0.5,0.5,0.7,1.1,0.6,1.8c0,0.1,0,0.3,0,0.4c0,0.3,0.2,0.5,0.5,0.4c0.1,0,0.3-0.1,0.4-0.1
		c0,0,0,0.1,0,0.1c0.1,0.3,0.1,0.5,0.2,0.8c0,0.2,0,0.2-0.1,0.3c-0.3,0.2-0.7,0.3-1.1,0.3c-0.1,0-0.3,0-0.4,0
		c-0.7-0.1-1.1-0.6-1.1-1.4c0-0.2,0-0.5,0-0.7c0-0.2,0-0.4,0-0.6c0-0.4-0.2-0.7-0.5-0.9c-0.1-0.1-0.2-0.1-0.3-0.1
		c-0.1,0.3-0.2,0.6-0.2,0.9c-0.1,0.3-0.2,0.6-0.2,0.9c-0.6,0-1.2,0-1.7,0c0,0,0,0,0,0c0,0,0,0,0,0c0.1-0.4,0.2-0.8,0.3-1.2
		C42.9,22.2,43.5,19.8,44.2,17.3z M44.5,23.1c0,0,0.1,0,0.1,0c0.3,0,0.6-0.1,0.9-0.2c0.3-0.1,0.5-0.3,0.7-0.6
		c0.1-0.1,0.2-0.3,0.2-0.4c0-0.3-0.2-0.5-0.5-0.5c-0.2,0-0.3,0.1-0.5,0.2c-0.5,0.4-0.8,0.8-0.9,1.4C44.5,23,44.5,23.1,44.5,23.1z"/>
	<path class="st0" d="M22.8,20.7c0.3-1.2,0.6-2.3,0.9-3.4c0.6,0,1.2,0,1.8,0c-0.2,0.7-0.4,1.5-0.6,2.2c-0.2,0.7-0.4,1.5-0.6,2.2
		c-0.2,0.7-0.4,1.4-0.6,2.2c-0.2,0.7-0.4,1.4-0.6,2.2c-0.5,0-1,0-1.5,0c0-0.2,0.1-0.4,0.1-0.6c0,0,0,0,0,0c-0.1,0.1-0.1,0.1-0.2,0.2
		c-0.6,0.6-1.5,0.8-2.3,0.1c-0.3-0.2-0.4-0.6-0.5-0.9c-0.1-0.4-0.1-0.7-0.1-1.1c0.1-1,0.4-1.9,1.1-2.7c0.4-0.4,0.8-0.7,1.3-0.8
		c0.3-0.1,0.7-0.1,1,0.1C22.4,20.4,22.6,20.5,22.8,20.7z M22.4,22.5c0-0.2-0.1-0.4-0.1-0.6c-0.1-0.4-0.4-0.5-0.8-0.3
		c-0.2,0.1-0.4,0.3-0.5,0.4c-0.4,0.6-0.5,1.3-0.5,2c0,0.1,0.1,0.3,0.1,0.4c0.1,0.2,0.3,0.3,0.5,0.2c0.1,0,0.3-0.1,0.4-0.2
		c0.2-0.1,0.3-0.3,0.4-0.5C22.2,23.5,22.3,23,22.4,22.5z"/>
	<path class="st0" d="M12.7,20.8c0.1-0.2,0.1-0.4,0.2-0.5c0.6,0,1.1,0,1.7,0c0,0.1,0,0.1,0,0.2c-0.3,1.2-0.6,2.4-0.9,3.5
		c0,0.1-0.1,0.2-0.1,0.3c0,0.2,0.1,0.3,0.3,0.3c0.1,0,0.2,0,0.3,0c0,0.1,0,0.1,0,0.2c-0.1,0.3-0.2,0.6-0.2,0.9
		c0,0.1-0.1,0.2-0.2,0.3c-0.4,0.2-0.9,0.2-1.3,0c-0.2-0.1-0.4-0.3-0.5-0.5c0-0.1-0.1-0.1-0.1-0.2c-0.1,0.1-0.1,0.1-0.1,0.2
		c-0.5,0.5-1,0.8-1.7,0.6c-0.6-0.1-1-0.6-1.2-1.1c-0.2-0.4-0.2-0.8-0.1-1.2c0.1-0.9,0.4-1.7,0.9-2.4c0.4-0.5,0.9-0.9,1.5-1
		c0.2,0,0.4-0.1,0.6,0c0.3,0.1,0.6,0.2,0.9,0.5C12.6,20.7,12.6,20.8,12.7,20.8z M10.4,23.7c0,0.2,0,0.4,0.1,0.6
		c0.1,0.4,0.4,0.5,0.8,0.3c0.1,0,0.1-0.1,0.2-0.2c0.1-0.1,0.3-0.3,0.3-0.4c0.3-0.4,0.4-0.9,0.4-1.5c0-0.2,0-0.4-0.1-0.6
		c-0.1-0.3-0.4-0.4-0.7-0.3c-0.1,0-0.2,0.1-0.3,0.2c-0.1,0.1-0.2,0.3-0.3,0.4C10.5,22.7,10.4,23.2,10.4,23.7z"/>
	<path class="st0" d="M37.7,22.6c0,1.1-0.5,2.1-1.4,2.9c-0.5,0.4-1.1,0.6-1.7,0.6c-0.9,0-1.7-0.6-2-1.5c-0.1-0.5-0.1-1,0-1.5
		c0.2-0.8,0.5-1.6,1.2-2.2c0.6-0.5,1.3-0.8,2.1-0.7c0.9,0.1,1.4,0.6,1.7,1.4C37.6,21.9,37.7,22.2,37.7,22.6z M34.1,23.6
		c0,0.3,0,0.6,0.1,0.7c0.2,0.3,0.4,0.4,0.8,0.2c0.1-0.1,0.2-0.2,0.3-0.3c0.5-0.6,0.7-1.4,0.6-2.1c0-0.2-0.1-0.3-0.1-0.5
		c-0.1-0.2-0.3-0.3-0.6-0.2c-0.1,0-0.3,0.1-0.4,0.2c-0.2,0.2-0.3,0.4-0.4,0.6C34.2,22.7,34.2,23.2,34.1,23.6z"/>
	<path class="st0" d="M41.6,24.5c-0.1,0.2-0.1,0.3-0.1,0.5c-0.1,0.2-0.1,0.5-0.2,0.7c0,0.1-0.1,0.2-0.2,0.2c-0.7,0.2-1.4,0.2-2-0.2
		c-0.6-0.4-0.9-0.9-1-1.6c-0.1-0.9,0.1-1.8,0.6-2.6c0.4-0.6,0.9-1,1.6-1.3c0.8-0.3,1.5-0.2,2.2,0.2c0,0,0.1,0,0.1,0.1
		c-0.1,0.4-0.2,0.8-0.3,1.2c-0.1,0-0.1,0-0.1-0.1c0,0-0.1-0.1-0.1-0.1c-0.5-0.4-1.1-0.3-1.6,0.1c-0.4,0.4-0.6,0.8-0.6,1.3
		c0,0.3-0.1,0.6,0,0.9c0.1,0.5,0.4,0.8,0.9,0.7C41,24.7,41.3,24.7,41.6,24.5z"/>
	<path class="st0" d="M16.2,26c-0.6,0-1.2,0-1.7,0c0,0,0,0,0,0c0,0,0,0,0,0c0,0,0-0.1,0-0.1c0.5-1.8,1-3.7,1.4-5.5
		c0.6,0,1.1,0,1.7,0c-0.1,0.2-0.1,0.4-0.2,0.7c0,0,0,0,0,0c0,0,0.1-0.1,0.1-0.1c0.2-0.3,0.5-0.5,0.8-0.6c0.2-0.1,0.5-0.1,0.8,0
		c-0.1,0.6-0.3,1.1-0.4,1.7c-0.1,0-0.1,0-0.2-0.1c-0.4-0.1-0.7-0.1-1,0.2c-0.2,0.2-0.4,0.4-0.5,0.7c-0.1,0.4-0.2,0.7-0.3,1.1
		c-0.2,0.6-0.3,1.3-0.5,1.9C16.2,25.9,16.2,25.9,16.2,26z"/>
	<path class="st0" d="M22.6,31.6c0-0.8,0.7-1.6,1.8-1.4c0.7,0.1,1.1,0.5,1.2,1.2c0,0.5-0.1,1-0.5,1.3c-0.5,0.5-1.4,0.6-1.9,0.2
		C22.7,32.6,22.6,32.2,22.6,31.6z M24.8,31.6c0-0.1,0-0.2-0.1-0.3c-0.1-0.3-0.3-0.5-0.7-0.5c-0.3,0-0.6,0.2-0.7,0.5
		c-0.1,0.2-0.1,0.4,0,0.6c0.1,0.3,0.3,0.6,0.6,0.6c0.4,0,0.6-0.2,0.7-0.5C24.8,31.9,24.8,31.7,24.8,31.6z"/>
	<path class="st0" d="M21.4,31.3c0-0.4,0-0.7,0-1.1c0.3,0,0.5,0,0.7,0c0,0.2,0.1,2.5,0,2.9c-0.2,0-0.4,0-0.7,0c0-0.4,0-0.8,0-1.2
		c-0.4,0-0.8,0-1.2,0c0,0.4,0,0.8,0,1.1c-0.3,0-0.5,0-0.7,0c0-1,0-1.9,0-2.9c0.2,0,0.5,0,0.7,0c0,0.4,0,0.7,0,1.1
		C20.6,31.3,21,31.3,21.4,31.3z"/>
	<path class="st0" d="M30.2,30.7c-0.4,0-0.7,0-1,0c0,0.2,0,0.4,0,0.6c0.3,0,0.6,0,1,0c0,0.2,0,0.4,0,0.5c-0.3,0-0.6,0-1,0
		c0,0.2,0,0.4,0,0.6c0.3,0,0.7,0,1,0c0,0.2,0,0.4,0,0.6c-0.6,0-1.2,0-1.8,0c0-1,0-1.9,0-2.9c0.6,0,1.2,0,1.7,0
		C30.2,30.4,30.2,30.5,30.2,30.7z"/>
	<path class="st0" d="M27.2,33.1c-0.3,0-0.5,0-0.7,0c0-0.4,0-0.7,0-1.1c0-0.4,0-0.7,0-1.1c-0.2-0.1-0.5,0-0.7,0c0-0.2,0-0.4,0-0.6
		c0.2-0.1,1.9-0.1,2.2,0c0,0.2,0,0.4,0,0.6c-0.2,0-0.5,0-0.7,0c0,0.3,0,0.5,0,0.8c0,0.2,0,0.5,0,0.7C27.2,32.5,27.2,32.8,27.2,33.1z
		"/>
	<path class="st0" d="M30.8,30.2c0.2,0,0.4,0,0.5,0c0,0,0.1,0,0.2,0c0,0.7,0,1.5,0,2.2c0.3,0,0.6,0,0.9,0c0,0.2,0,0.4,0,0.6
		c-0.6,0-1.1,0-1.6,0C30.8,32.1,30.8,31.1,30.8,30.2z"/>
	<path class="st0" d="M41.1,28.2c-0.4,0-0.7-0.3-0.6-0.7c0-0.4,0.3-0.6,0.6-0.6c0.4,0,0.7,0.3,0.7,0.6
		C41.7,27.9,41.5,28.2,41.1,28.2z M40.5,27.5c0,0.3,0.2,0.6,0.5,0.6c0.3,0,0.6-0.2,0.6-0.5c0-0.3-0.2-0.6-0.5-0.6
		C40.8,27,40.6,27.2,40.5,27.5z"/>
	<path class="st0" d="M40.9,27.2c0.2,0,0.3-0.1,0.4,0.1c0.1,0.1,0,0.2-0.2,0.3c0.1,0.1,0.1,0.2,0.2,0.3c-0.2,0-0.2-0.2-0.3-0.2
		c0,0.1,0,0.2,0,0.2C40.9,27.8,40.8,27.6,40.9,27.2z M41,27.5c0.1,0,0.2,0,0.2-0.1c0-0.1-0.1-0.1-0.2-0.1C41,27.4,41,27.4,41,27.5z"
		/>
</g>
</svg>
