<?xml version="1.0" encoding="utf-8"?>
<!-- Generator: Adobe Illustrator 27.0.0, SVG Export Plug-In . SVG Version: 6.00 Build 0)  -->
<svg version="1.1" id="Layer_1" xmlns="http://www.w3.org/2000/svg" xmlns:xlink="http://www.w3.org/1999/xlink" x="0px" y="0px"
	 viewBox="0 0 177.65 177.65" style="enable-background:new 0 0 177.65 177.65;" xml:space="preserve">
<style type="text/css">
	.st0{fill:#7D6597;}
	.st1{fill:#35495E;}
	.st2{fill:#2C3E50;}
	.st3{fill:#FEFEFD;}
	.st4{fill:#5D4C71;}
	.st5{fill:#5D4C72;}
</style>
<g>
	<path class="st0" d="M149.5,136.51c-3.73,0-7.47,0-11.21,0c0-4.34,0-8.68,0.01-13.01c0.77-0.01,1.55,0.04,2.31-0.03
		c1.11-0.1,1.8-0.78,1.96-1.86c0.16-1.11-0.4-1.89-1.42-2.29c-0.37-0.14-0.79-0.21-1.18-0.21c-5.4-0.01-10.79-0.01-16.18-0.01
		c-0.32,0-0.65,0.02-0.96,0.11c-1,0.29-1.83,1.39-1.74,2.26c0.12,1.14,1.02,1.96,2.23,2.02c0.69,0.03,1.38,0.01,2.07,0.01
		c0,4.34,0,8.68,0,13.01c-8.61,0-17.22,0-25.82,0c0.01-5.07,0.01-10.15,0.02-15.22c1.38,0,2.75,0.02,4.13-0.01
		c1.39-0.03,2.36-0.94,2.34-2.13c-0.03-1.19-1-2.06-2.39-2.06c-9.88-0.01-19.77-0.01-29.65,0c-1.38,0-2.36,0.88-2.38,2.07
		c-0.02,1.19,0.95,2.09,2.35,2.12c1.38,0.03,2.75,0.01,4.13,0.01c0,5.07,0,10.15,0.01,15.22c-8.61,0-17.22,0-25.83,0
		c0-4.34,0-8.68,0-13.01c0.77-0.01,1.54,0.02,2.31-0.03c1.02-0.07,1.58-0.73,1.9-1.65c0.31-0.88-0.15-1.49-0.72-2.06
		c-0.53-0.52-1.18-0.67-1.89-0.67c-5.35,0.01-10.71,0-16.06,0c-0.45,0-0.89,0.03-1.31,0.21c-1.01,0.44-1.58,1.2-1.42,2.3
		c0.15,1.09,0.85,1.76,1.96,1.86c0.77,0.07,1.54,0.03,2.31,0.03c0,4.34,0,8.68,0.01,13.01c-3.82,0-7.63,0-11.45,0
		c-1.12-0.67-1.49-1.65-1.48-2.97c0.05-6.75,0.02-13.5,0.03-20.26c0-2.06,0.74-2.79,2.8-2.79c2.64-0.01,5.28-0.01,7.91-0.01
		c9.54,0,19.08-0.02,28.62,0.03c1.21,0.01,1.61-0.33,1.61-1.59c-0.04-19.72-0.03-39.45-0.03-59.17c-0.01-1.22-0.03-2.45-0.02-3.67
		c0.01-3.33,1.61-4.92,4.95-4.93c5.27-0.01,10.54,0,15.8,0c5.88,0,11.75-0.01,17.63,0.01c2.86,0.01,4.55,1.71,4.58,4.56
		c0.02,1.35-0.01,2.7-0.02,4.04c0,19.72,0,39.45-0.03,59.17c0,1.25,0.39,1.6,1.61,1.59c9.54-0.04,19.08-0.03,28.62-0.03
		c2.59,0,5.18,0.07,7.77-0.01c1.31-0.04,2.27,0.38,2.95,1.49c0,7.61,0,15.23,0,22.84C150.91,135.65,150.33,136.21,149.5,136.51z
		 M101.74,75.85c0-0.69,0.03-1.39-0.01-2.08c-0.06-1.39-0.84-2.24-2.19-2.29c-1.42-0.06-2.84-0.06-4.25,0
		c-1.26,0.05-2.07,0.84-2.11,2.08c-0.06,1.51-0.05,3.02,0,4.53c0.05,1.19,0.74,1.88,1.9,2c0.8,0.08,1.62,0.05,2.43,0.06
		C101.55,80.15,101.74,79.95,101.74,75.85z M84.51,75.86c0-0.61,0.01-1.22,0-1.84c-0.04-1.77-0.78-2.53-2.53-2.56
		c-1.25-0.02-2.51-0.04-3.76,0.01c-1.44,0.05-2.24,0.87-2.28,2.32c-0.04,1.35-0.04,2.7,0,4.04c0.04,1.41,0.79,2.22,2.17,2.28
		c1.41,0.06,2.84,0.07,4.25,0c1.41-0.07,2.09-0.84,2.15-2.29C84.53,77.16,84.51,76.51,84.51,75.86z M84.51,56.33
		c0-0.69,0.02-1.39,0-2.08c-0.06-1.48-0.81-2.21-2.3-2.26c-0.69-0.02-1.38-0.01-2.06-0.01c-4.06,0-4.21,0.15-4.21,4.28
		c0,4.19,0.17,4.37,4.27,4.37C84.39,60.63,84.51,60.51,84.51,56.33z M97.55,60.62C97.55,60.63,97.55,60.63,97.55,60.62
		c0.57,0.01,1.13,0.02,1.7,0c1.67-0.04,2.46-0.82,2.49-2.48c0.02-1.31,0.04-2.61-0.01-3.92c-0.05-1.39-0.85-2.2-2.22-2.23
		c-1.42-0.04-2.84-0.04-4.25,0.01c-1.28,0.04-2.03,0.79-2.08,2.08c-0.05,1.47-0.05,2.94,0,4.41c0.05,1.32,0.84,2.07,2.18,2.13
		C96.09,60.65,96.82,60.62,97.55,60.62z M84.51,95.33c0-4.24-0.1-4.34-4.27-4.34c-4.16,0-4.32,0.15-4.32,4.31
		c0,4.17,0.18,4.36,4.29,4.36C84.36,99.66,84.51,99.51,84.51,95.33z M101.74,95.37c0-0.69,0.03-1.39-0.01-2.08
		c-0.06-1.4-0.81-2.21-2.19-2.26c-1.42-0.05-2.84-0.05-4.25,0c-1.3,0.05-2.06,0.78-2.11,2.05c-0.06,1.47-0.05,2.94-0.01,4.41
		c0.04,1.31,0.84,2.09,2.16,2.17c0.73,0.04,1.46,0.01,2.18,0.01C101.54,99.66,101.74,99.45,101.74,95.37z"/>
	<path class="st1" d="M39.38,136.51c0-4.34,0-8.68-0.01-13.01c4.31,0,8.61,0,12.92,0c0,4.34,0,8.68,0,13.01
		C47.98,136.51,43.68,136.51,39.38,136.51z"/>
	<path class="st1" d="M125.38,136.51c0-4.34,0-8.68,0-13.01c4.31,0,8.61,0,12.92,0c0,4.34,0,8.68-0.01,13.01
		C133.99,136.51,129.68,136.51,125.38,136.51z"/>
	<path class="st2" d="M78.11,136.51c0-5.07,0-10.15-0.01-15.22c3.57,0.01,7.14,0.02,10.71,0.04c0,5.06,0.01,10.13,0.01,15.19
		C85.26,136.51,81.69,136.51,78.11,136.51z"/>
	<path class="st1" d="M88.83,136.51c0-5.06-0.01-10.13-0.01-15.19c3.58-0.01,7.17-0.02,10.75-0.03c-0.01,5.07-0.01,10.15-0.02,15.22
		C95.98,136.51,92.41,136.51,88.83,136.51z"/>
	<path class="st3" d="M149.5,136.51c0.84-0.3,1.42-0.86,1.71-1.72C151.2,136.51,151.2,136.51,149.5,136.51z"/>
	<path class="st4" d="M37.19,110.48c0.01-18.04,0.01-36.08,0.02-54.13c0-0.45,0-0.9,0-1.35c0-3.62,1.58-5.2,5.21-5.2
		c7.83,0,15.66,0,23.5,0c0.49,0,0.97-0.03,1.46-0.05c0,19.72,0,39.45,0.03,59.17c0,1.25-0.39,1.6-1.61,1.59
		C56.26,110.46,46.72,110.48,37.19,110.48z M52.27,58.44c-1.38,0-2.75-0.03-4.13,0.01c-1.4,0.05-2.24,0.8-2.31,2.17
		c-0.07,1.46-0.07,2.94,0.01,4.41c0.07,1.28,0.82,2.05,2.11,2.08c2.87,0.07,5.75,0.07,8.62,0c1.34-0.03,2.06-0.84,2.12-2.2
		c0.05-1.35,0.05-2.69,0.01-4.04c-0.04-1.61-0.82-2.38-2.42-2.42C54.95,58.42,53.61,58.44,52.27,58.44z M52.33,93.14
		C52.33,93.15,52.33,93.15,52.33,93.14c-1.42,0.01-2.84-0.04-4.25,0.02c-1.41,0.06-2.18,0.81-2.25,2.21c-0.07,1.39-0.06,2.78,0,4.16
		c0.06,1.46,0.87,2.27,2.31,2.29c2.75,0.04,5.51,0.04,8.26,0c1.46-0.02,2.24-0.82,2.3-2.29c0.05-1.3,0.04-2.61,0.01-3.92
		c-0.04-1.7-0.78-2.43-2.49-2.47C54.92,93.12,53.63,93.14,52.33,93.14z M52.33,84.46c1.34,0,2.68,0.02,4.02-0.01
		c1.55-0.03,2.31-0.78,2.35-2.35c0.04-1.31,0.04-2.62,0-3.93c-0.04-1.57-0.8-2.34-2.34-2.35c-2.72-0.03-5.44-0.03-8.16,0
		c-1.54,0.02-2.31,0.78-2.37,2.35c-0.05,1.31-0.05,2.62,0,3.93c0.06,1.62,0.84,2.34,2.49,2.35C49.65,84.48,50.99,84.46,52.33,84.46z
		"/>
	<path class="st4" d="M110.29,49.74c6.09,0.02,12.17,0.04,18.26,0.05c2.35,0.01,4.71-0.01,7.06,0c3.17,0.01,4.85,1.73,4.85,4.96
		c0,18,0,36,0,54c0,0.57,0.01,1.15,0.02,1.72c-9.54,0-19.08-0.02-28.62,0.03c-1.21,0.01-1.61-0.33-1.61-1.59
		C110.3,89.19,110.29,69.47,110.29,49.74z M125.33,101.84c1.38,0,2.75,0.03,4.13-0.01c1.52-0.04,2.32-0.82,2.38-2.35
		c0.05-1.34,0.06-2.7-0.01-4.04c-0.07-1.48-0.83-2.25-2.31-2.28c-2.75-0.05-5.51-0.05-8.26,0c-1.54,0.03-2.27,0.83-2.31,2.4
		c-0.04,1.3-0.04,2.61,0,3.92c0.05,1.54,0.83,2.31,2.36,2.36C122.66,101.87,124,101.84,125.33,101.84z M125.48,58.44
		c-1.38,0-2.76-0.03-4.13,0.01c-1.54,0.04-2.34,0.81-2.39,2.33c-0.04,1.35-0.04,2.7,0,4.04c0.05,1.49,0.78,2.28,2.27,2.31
		c2.75,0.06,5.51,0.06,8.26,0c1.54-0.03,2.29-0.82,2.35-2.38c0.05-1.3,0.05-2.61,0-3.92c-0.06-1.58-0.88-2.35-2.48-2.39
		C128.07,58.42,126.78,58.44,125.48,58.44z M125.36,84.46c1.38,0,2.76,0.02,4.14-0.01c1.43-0.03,2.25-0.74,2.32-2.13
		c0.07-1.47,0.08-2.95,0-4.42c-0.07-1.34-0.89-2.06-2.24-2.08c-2.8-0.03-5.6-0.03-8.4,0c-1.35,0.02-2.13,0.78-2.18,2.12
		c-0.06,1.43-0.05,2.87-0.01,4.3c0.05,1.41,0.83,2.17,2.24,2.2C122.6,84.49,123.98,84.46,125.36,84.46z"/>
	<path class="st5" d="M99.57,121.29c-3.58,0.01-7.17,0.02-10.75,0.03c-3.57-0.01-7.14-0.02-10.71-0.04c-1.38,0-2.75,0.02-4.13-0.01
		c-1.4-0.03-2.37-0.93-2.35-2.12c0.02-1.19,0.99-2.07,2.38-2.07c9.88-0.01,19.77-0.01,29.65,0c1.39,0,2.36,0.87,2.39,2.06
		c0.03,1.19-0.94,2.1-2.34,2.13C102.33,121.31,100.95,121.29,99.57,121.29z"/>
	<path class="st5" d="M52.29,123.5c-4.31,0-8.61,0-12.92,0c-0.77-0.01-1.55,0.04-2.31-0.03c-1.11-0.1-1.8-0.77-1.96-1.86
		c-0.16-1.11,0.41-1.87,1.42-2.3c0.42-0.18,0.86-0.21,1.31-0.21c5.35,0,10.71,0,16.06,0c0.72,0,1.37,0.15,1.89,0.67
		c0.57,0.57,1.02,1.18,0.72,2.06c-0.32,0.92-0.88,1.58-1.9,1.65C53.84,123.52,53.06,123.49,52.29,123.5z"/>
	<path class="st5" d="M138.3,123.5c-4.31,0-8.61,0-12.92,0c-0.69,0-1.38,0.02-2.07-0.01c-1.22-0.06-2.12-0.88-2.23-2.02
		c-0.09-0.86,0.74-1.97,1.74-2.26c0.31-0.09,0.64-0.11,0.96-0.11c5.39-0.01,10.79-0.01,16.18,0.01c0.4,0,0.82,0.07,1.18,0.21
		c1.02,0.4,1.58,1.18,1.42,2.29c-0.15,1.09-0.85,1.77-1.96,1.86C139.84,123.53,139.07,123.49,138.3,123.5z"/>
</g>
</svg>
