<?xml version="1.0" encoding="utf-8"?>
<!-- Generator: Adobe Illustrator 24.2.3, SVG Export Plug-In . SVG Version: 6.00 Build 0)  -->
<svg version="1.1" id="Layer_1" xmlns="http://www.w3.org/2000/svg" xmlns:xlink="http://www.w3.org/1999/xlink" x="0px" y="0px"
	 viewBox="0 0 231 231" style="enable-background:new 0 0 231 231;" xml:space="preserve">
<style type="text/css">
	.st0{fill:#98BCE4;}
	.st1{fill:#B2CDEB;}
	.st2{fill:#0268C5;}
	.st3{fill:#D2E0F4;}
	.st4{fill:#0155A3;}
	.st5{fill:#0256A3;}
	.st6{fill:#D1DFF4;}
	.st7{fill:#E9F5FE;}
	.st8{fill:#FCE806;}
	.st9{fill:#61B7FE;}
	.st10{fill:#5A6E78;}
	.st11{fill:#FDEDD1;}
	.st12{fill:#5DB4FC;}
	.st13{fill:#FEFEFE;}
	.st14{fill:#F8C201;}
	.st15{fill:#E5B701;}
	.st16{fill:#B8ABAB;}
	.st17{fill:#9E9595;}
	.st18{fill:#DDCFCA;}
	.st19{fill:#FADB47;}
	.st20{fill:#FADB42;}
	.st21{fill:#FBDD33;}
	.st22{fill:#FAE67B;}
	.st23{fill:#F1E6E3;}
	.st24{fill:#DFD0C6;}
	.st25{fill:#9F9696;}
	.st26{fill:#A09797;}
	.st27{fill:#EEE3E0;}
	.st28{fill:#4A91FF;}
	.st29{fill:#71BDFF;}
	.st30{fill:#4A77EC;}
	.st31{fill:#757576;}
	.st32{fill:#FEA626;}
	.st33{fill:#636363;}
	.st34{fill:#FEB64D;}
	.st35{fill:#9ADBF8;}
	.st36{fill:#B9E5FB;}
	.st37{fill:#FECB80;}
	.st38{fill:#FDCA81;}
	.st39{fill:#005DAC;}
	.st40{fill:#BCBBBC;}
	.st41{fill:#FECB7E;}
</style>
<g>
	<path class="st0" d="M33,103.6c0,0-0.2,0-0.2,0l-0.2,0c0-1.6,0-3.2,0-4.9c1.4-4.7,4.3-7.9,9.2-9.2c1.6-0.4,3.2-0.9,4.8-1.4
		c15.4-4.4,30.8-8.8,46.1-13.3c10.7-3.1,21.5-6.2,32.2-9.3c0.4-0.1,0.8-0.1,1.3-0.2c0.7,4.2,1.1,5.4,4.2,5.2
		c-0.2,1.2,0.3,2.4,0.7,3.4c0.5,1.4-0.1,1.7-1.3,2.1c-9.1,2.6-18.3,5.1-27.4,7.8c-9.7,2.8-19.4,5.6-29.1,8.4
		c-9.3,2.7-18.6,5.3-27.9,7.9C41.3,101.2,37.2,102.4,33,103.6z"/>
	<path class="st1" d="M33,103.6c4.2-1.2,8.4-2.3,12.5-3.5c9.3-2.6,18.6-5.2,27.9-7.9c9.7-2.8,19.4-5.6,29.1-8.4
		c9.1-2.6,18.3-5.2,27.4-7.8c1.2-0.3,1.8-0.6,1.3-2.1c-0.4-1.1-0.9-2.2-0.7-3.4c1.5-1.1,1.9-2.4,1.2-4.1c-0.3-0.8-0.6-1.7-0.5-2.6
		c5.9-1.7,11.9-3.4,17.8-5.1c6.7-1.9,13.3-3.9,20-5.8c5.7-1.6,11.6,1.2,14,6.7c0.2,0.4,0.2,0.8,0.3,1.2c-2.1,0.6-4.1,1-6.2,1.7
		c-3,1-6.2,1.5-9.1,2.9c-0.8-0.7-1.7-0.8-2.7-0.5c-6.9,2-13.9,4-20.8,6c-0.9,0.2-1.6,0.6-1.8,1.6c-3,0.5-5.9,1.6-8.8,2.4
		c-1,0.3-2.6,0.2-1.9,2.1c0,0.1-0.2,0.4-0.3,0.5c-1.5,0.9-1.3,2.3-1,3.7c0.5,1.9,1.1,3.7,1.6,5.6c0.3,1.1,1,1.8,2.2,1.8
		c0.8,0,1.1,0.4,1.3,1.1c0.4,1.6,0.9,3.2,1.4,4.8c0.2,0.7-0.1,1.1-0.5,1.4c-1.1,0.9-1.2,2-0.8,3.2c0.5,2,1.2,4,1.8,6
		c0.2,0.8,0.8,1.5,1.5,1.5c1.7-0.1,1.8,1,2.2,2.2c0.3,1.2,0.6,2.5,1.1,3.7c0.2,0.7,0.1,1.2-0.5,1.6c-0.9,0.7-1.1,1.7-0.9,2.8
		c0.5,2,1.1,4,1.7,6c0.3,0.8,0.6,1.9,1.5,1.9c1.6,0,1.9,1,2.3,2.2c0.3,1.2,0.7,2.4,1.1,3.5c0.1,0.5,0.3,1-0.2,1.3
		c-1.7,1.2-1.5,2.7-0.9,4.3c0.3,0.7,0.3,1.5,0.5,2.2c-3.1,0.9-6.3,1.8-9.4,2.6c-1.6-5.6-3.2-11.3-4.8-16.9c-0.5-1.6-1.4-2.1-2.9-1.6
		c-3.1,0.9-6.2,1.8-9.3,2.7c-1.6,0.5-2.1,1.4-1.7,3.1c1,3.6,2.1,7.2,3.1,10.9c0.6,2,0.9,4.1,1.9,6c-2.6,0.8-5.2,1.5-7.9,2.3
		c-17.9,5.1-35.8,10.2-53.6,15.4c-6.5,1.9-13.1-2.1-14.7-8.2c-0.6-2.2-1.3-4.3-1.9-6.5c-0.5-1.8-0.9-3.6-1.5-5.4
		c-0.5-1.5,0-2.4,1.4-3.1c1.2-0.7,2.6-1.3,3.1-2.8c0.6,0.2,0.8-0.4,1.1-0.7c2.7-3.8,3.3-7.9,1.5-12.2c-1.8-4.3-5.1-6.7-9.7-7.5
		c-1.6-0.3-3.1,0.3-4.6-0.2c-1.6-2.7-1.9-5.8-2.9-8.6C33.6,106.3,33.3,104.9,33,103.6z M60.8,115.8c-1.5,0-1.9,0.6-1.3,1.7
		c1.4,2.5,2.9,4.9,4.3,7.4c0.4,0.7,0.9,1.1,1.9,0.7c3.5-1.4,7.2-2,10.9-2.9c5-1.2,10-2.3,15-3.5c0.5-0.1,1.2-0.6,1.1,0.6
		c-0.2,3.4-0.1,6.8-0.5,10.1c-0.3,2.4,0,4.8-0.5,7.2c-0.2,1.2,0.6,1.8,1.8,1.5c1.5-0.4,2.9-0.8,4.3-1.2c1.1-0.3,1.6-0.9,1.9-2.1
		c1.5-6.1,3.2-12.1,4.7-18.2c0.2-0.8,0.6-1.2,1.3-1.3c1.7-0.4,3.4-0.9,5.2-1.2c3.7-0.6,6.1-2.7,7.6-6c1.1-2.5,1.2-2.5-1.1-4
		c-2.9-1.9-5.8-2.6-9.2-1.2c-1.8,0.8-3.7,1.2-5.5,1.9c-0.8,0.3-1.4,0.2-2-0.5c-2.5-2.4-5-4.8-7.5-7.1c-2.1-2-4.1-3.9-6.2-5.9
		c-0.6-0.5-1.1-1-2-0.7c-1.5,0.5-3.1,0.9-4.6,1.4c-1.6,0.5-1.8,1-0.8,2.4c3.1,4.5,6.3,9,9.5,13.4c0.9,1.2,0.7,1.4-0.6,1.9
		c-6.1,2-12.2,4.1-18.3,6.4c-2.1,0.8-4.1,0.9-6.2,0.2C62.9,116.3,61.7,116.1,60.8,115.8z M60.3,150.8c0.2,0,0.4,0,0.6-0.1
		c6.3-1.8,12.6-3.6,18.9-5.4c1.7-0.5,2.5-1.9,2-3.3c-0.4-1.4-1.7-2-3.4-1.6c-4.4,1.2-8.8,2.5-13.2,3.8c-2,0.6-4,1.1-6,1.8
		c-1.3,0.4-1.8,1.5-1.5,2.8C58,150.1,58.9,150.7,60.3,150.8z"/>
	<path class="st2" d="M180.5,138.5c-0.1,5.9,2.4,10.2,7.9,12.6c1.1,0.5,2.2,0.8,3.4,0.8c1.1,0,1.5,0.4,1.5,1.5
		c-0.1,4.4,0,8.7,0,13.1c-0.1,6.9-5,11.9-11.9,12c-0.3,0-0.6,0-1,0c-43.6,0-87.2,0-130.7,0c-6.1,0-10.6-3.1-12.2-8.4
		c-0.4-1.2-0.5-2.5-0.5-3.8c0-3.8,0-7.5,0-11.3c0-2.7,0-2.7,2.6-3.4c0.3-0.1,0.6-0.1,0.9-0.2c0,0.3,0,0.7,0,1
		c1.4,4.7,2.4,9.6,4.2,14.2c1.9,5,7.8,8.2,13.1,6.9c5-1.2,9.8-2.7,14.7-4.2c10.5-3.1,21.1-6,31.6-9c10.8-3.1,21.7-6.3,32.5-9.4
		c12.3-3.5,24.6-7.1,36.9-10.5C175.8,139.7,178,138.7,180.5,138.5z M162.8,158.2c-4,0-8,0-12,0c-1.6,0-2.2,0.6-2.3,2.3
		c0,1.7,0,3.5,0,5.2c0,1.7,0.7,2.3,2.4,2.3c7.8,0,15.5,0,23.3,0c1.7,0,2.3-0.6,2.4-2.4c0-1.7,0-3.3,0-5c0-1.8-0.6-2.4-2.5-2.4
		C170.3,158.2,166.6,158.2,162.8,158.2z M122.6,165.1c4.4,0,8.7,0,13.1,0c1.9,0,2.9-0.9,2.9-2.5c0-1.6-0.9-2.6-2.8-2.6
		c-8.7,0-17.5,0-26.2,0c-1.8,0-2.8,1-2.8,2.6c0,1.6,1,2.5,2.9,2.5C113.9,165.1,118.3,165.1,122.6,165.1z"/>
	<path class="st3" d="M167.9,65.4c2.9-1.4,6.1-1.8,9.1-2.9c2-0.7,4.1-1.1,6.2-1.7c1.2,2.7,1.8,5.6,2.5,8.4c1,3.8,0.9,3.6-2.4,5.7
		c-6.5,4.3-7.6,12.7-2.7,18.4c3.1,3.7,7.2,4.9,11.9,4.1c0.7-0.1,1.3,0.1,1.4,0.7c1.5,5.4,3.7,10.6,4.3,16.2c0.4,4.2-1.8,7.5-5,10.2
		c-1.1,0.5-2.2,1.1-3.4,1.4c-14.3,4.2-28.7,8.3-43,12.5c-0.2-0.7-0.3-1.5-0.5-2.2c-0.6-1.6-0.8-3.1,0.9-4.3c0.5-0.3,0.3-0.9,0.2-1.3
		c-0.3-1.2-0.7-2.4-1.1-3.5c-0.3-1.2-0.7-2.2-2.3-2.2c-1,0-1.3-1.1-1.5-1.9c-0.6-2-1.2-4-1.7-6c-0.3-1.1-0.1-2.1,0.9-2.8
		c0.6-0.5,0.7-0.9,0.5-1.6c-0.4-1.2-0.7-2.5-1.1-3.7c-0.3-1.1-0.5-2.3-2.2-2.2c-0.7,0-1.3-0.6-1.5-1.5c-0.6-2-1.2-4-1.8-6
		c-0.3-1.2-0.3-2.4,0.8-3.2c0.4-0.3,0.7-0.7,0.5-1.4c-0.5-1.6-1-3.2-1.4-4.8c-0.2-0.7-0.5-1.1-1.3-1.1c-1.1-0.1-1.8-0.7-2.2-1.8
		c-0.5-1.9-1.1-3.7-1.6-5.6c-0.4-1.4-0.5-2.8,1-3.7c0.2-0.1,0.4-0.4,0.3-0.5c-0.8-1.9,0.9-1.9,1.9-2.1c3-0.8,5.8-1.9,8.8-2.4
		c0.3,2.5,1.2,4.8,1.9,7.2c0.4,1.3,1.5,1.5,2.6,1.2c7.1-2,14.3-4.1,21.4-6.2c1.2-0.4,1.8-1.3,1.4-2.6
		C169.2,69.8,168.6,67.6,167.9,65.4z M170.9,122.6c0,0,0.5-0.1,1-0.2c4.1-1.2,8.3-2.3,12.4-3.5c1.7-0.5,2.7-1.8,2.3-3.1
		c-0.4-1.5-1.8-2.2-3.6-1.8c-1.1,0.3-2.2,0.6-3.3,0.9c-3.4,1-6.7,1.9-10,3c-1.3,0.4-2,1.4-1.8,2.7
		C168.3,121.8,169,122.7,170.9,122.6z M168.5,113.9c0.1,0,0.6,0,1-0.1c4.2-1.2,8.4-2.4,12.5-3.6c1.7-0.5,2.5-1.8,2.2-3.2
		c-0.3-1.3-1.8-2.1-3.4-1.7c-4.5,1.2-9,2.6-13.5,3.9c-1.3,0.4-1.9,1.4-1.7,2.7C165.7,113.3,166.7,114,168.5,113.9z"/>
	<path class="st4" d="M146.9,138.4c14.3-4.1,28.7-8.3,43-12.5c1.2-0.3,2.3-0.9,3.4-1.4c0,0.5,0,1.1,0,1.6c0,0.6-0.2,1-0.9,1
		c-6,0.2-11,4.9-11.7,10.7c0,0.2-0.1,0.4-0.2,0.6c-2.5,0.2-4.8,1.2-7.1,1.9c-12.3,3.5-24.6,7-36.9,10.5c-10.8,3.1-21.7,6.3-32.5,9.4
		c-10.5,3-21.1,6-31.6,9c-4.9,1.4-9.8,2.9-14.7,4.2c-5.3,1.3-11.2-1.9-13.1-6.9c-1.8-4.6-2.8-9.5-4.2-14.2c-0.1-0.3,0-0.6,0-1
		c1.9-0.8,3.6-1.9,5.2-3.2c0.6,2.2,1.3,4.3,1.9,6.5c1.6,6,8.2,10,14.7,8.2c17.9-5.2,35.8-10.3,53.6-15.4c2.6-0.8,5.2-1.5,7.9-2.3
		c4.6-1.3,9.2-2.7,13.8-4C140.7,140.2,143.8,139.3,146.9,138.4z"/>
	<path class="st5" d="M36.9,116.2c1.5,0.5,3.1-0.1,4.6,0.2c4.6,0.8,7.9,3.2,9.7,7.5c1.8,4.3,1.2,8.4-1.5,12.2
		c-0.3,0.4-0.5,0.9-1.1,0.7c-0.8-4.5-4.6-8.3-9.2-9.3c-2.4-0.5-2.5-0.6-2.5-3C36.9,121.7,36.9,119,36.9,116.2z"/>
	<path class="st6" d="M131.1,63.8c-0.1,0.9,0.2,1.8,0.5,2.6c0.7,1.7,0.3,3.1-1.2,4.1c-3.1,0.2-3.5-1-4.2-5.2
		C127.7,64.4,129.5,64.4,131.1,63.8z"/>
	<path class="st7" d="M60.8,115.8c0.9,0.2,2.1,0.4,3.2,0.8c2.1,0.8,4.1,0.6,6.2-0.2c6.1-2.2,12.2-4.3,18.3-6.4
		c1.3-0.4,1.5-0.7,0.6-1.9c-3.2-4.4-6.4-8.9-9.5-13.4c-1-1.4-0.8-1.9,0.8-2.4c1.5-0.5,3.1-0.9,4.6-1.4c0.9-0.3,1.4,0.2,2,0.7
		c2.1,2,4.1,3.9,6.2,5.9c2.5,2.4,5,4.7,7.5,7.1c0.6,0.6,1.2,0.8,2,0.5c1.8-0.7,3.7-1.1,5.5-1.9c3.3-1.4,6.3-0.7,9.2,1.2
		c2.3,1.5,2.2,1.5,1.1,4c-1.5,3.3-3.9,5.4-7.6,6c-1.7,0.3-3.4,0.8-5.2,1.2c-0.8,0.2-1.1,0.5-1.3,1.3c-1.5,6.1-3.2,12.1-4.7,18.2
		c-0.3,1.2-0.8,1.8-1.9,2.1c-1.5,0.4-2.9,0.8-4.3,1.2c-1.2,0.3-2-0.3-1.8-1.5c0.5-2.4,0.2-4.8,0.5-7.2c0.4-3.3,0.3-6.8,0.5-10.1
		c0.1-1.2-0.6-0.7-1.1-0.6c-5,1.2-10,2.3-15,3.5c-3.7,0.9-7.4,1.5-10.9,2.9c-0.9,0.4-1.4,0-1.9-0.7c-1.4-2.5-2.9-4.9-4.3-7.4
		C58.9,116.5,59.3,115.8,60.8,115.8z"/>
	<path class="st8" d="M137.5,141.1c-4.6,1.3-9.2,2.7-13.8,4c-0.9-1.9-1.3-4-1.9-6c-1.1-3.6-2.1-7.2-3.1-10.9c-0.5-1.7,0-2.6,1.7-3.1
		c3.1-0.9,6.2-1.8,9.3-2.7c1.6-0.4,2.5,0,2.9,1.6C134.3,129.8,135.9,135.4,137.5,141.1z"/>
	<path class="st9" d="M167.9,65.4c0.7,2.2,1.3,4.4,2,6.6c0.4,1.4-0.2,2.3-1.4,2.6c-7.1,2.1-14.2,4.1-21.4,6.2
		c-1.1,0.3-2.2,0.2-2.6-1.2c-0.7-2.4-1.6-4.7-1.9-7.2c0.2-1,0.9-1.4,1.8-1.6c6.9-2,13.9-4,20.8-6C166.3,64.6,167.1,64.7,167.9,65.4z
		"/>
	<path class="st10" d="M60.3,150.8c-1.4-0.1-2.3-0.7-2.6-2c-0.3-1.3,0.2-2.4,1.5-2.8c2-0.7,4-1.2,6-1.8c4.4-1.3,8.8-2.5,13.2-3.8
		c1.6-0.5,2.9,0.2,3.4,1.6c0.5,1.4-0.3,2.8-2,3.3c-6.3,1.8-12.6,3.6-18.9,5.4C60.7,150.7,60.5,150.8,60.3,150.8z"/>
	<path class="st11" d="M162.8,158.2c3.8,0,7.5,0,11.3,0c1.8,0,2.4,0.6,2.5,2.4c0,1.7,0,3.3,0,5c0,1.7-0.7,2.4-2.4,2.4
		c-7.8,0-15.5,0-23.3,0c-1.7,0-2.3-0.6-2.4-2.3c0-1.7,0-3.5,0-5.2c0-1.6,0.6-2.3,2.3-2.3C154.8,158.2,158.8,158.2,162.8,158.2z"/>
	<path class="st12" d="M122.6,165.1c-4.3,0-8.6,0-12.9,0c-1.9,0-2.9-0.9-2.9-2.5c0-1.6,1-2.6,2.8-2.6c8.7,0,17.5,0,26.2,0
		c1.9,0,2.8,1,2.8,2.6c0,1.6-1,2.5-2.9,2.5C131.3,165.1,126.9,165.1,122.6,165.1z"/>
	<path class="st0" d="M170.9,122.6c-1.9,0.1-2.7-0.8-2.9-2c-0.3-1.4,0.5-2.3,1.8-2.7c3.3-1,6.7-2,10-3c1.1-0.3,2.2-0.6,3.3-0.9
		c1.8-0.4,3.2,0.3,3.6,1.8c0.3,1.3-0.6,2.7-2.3,3.1c-4.1,1.2-8.3,2.3-12.4,3.5C171.5,122.6,171,122.6,170.9,122.6z"/>
	<path class="st0" d="M168.5,113.9c-1.8,0-2.7-0.6-2.9-2.1c-0.2-1.3,0.5-2.3,1.7-2.7c4.5-1.3,9-2.7,13.5-3.9
		c1.6-0.4,3.1,0.4,3.4,1.7c0.4,1.4-0.4,2.7-2.2,3.2c-4.2,1.2-8.3,2.4-12.5,3.6C169,113.9,168.6,113.9,168.5,113.9z"/>
</g>
</svg>
