<?xml version="1.0" encoding="utf-8"?>
<!-- Generator: Adobe Illustrator 24.2.3, SVG Export Plug-In . SVG Version: 6.00 Build 0)  -->
<svg version="1.1" id="Layer_1" xmlns="http://www.w3.org/2000/svg" xmlns:xlink="http://www.w3.org/1999/xlink" x="0px" y="0px"
	 viewBox="0 0 231 231" style="enable-background:new 0 0 231 231;" xml:space="preserve">
<style type="text/css">
	.st0{fill:#98BCE4;}
	.st1{fill:#B2CDEB;}
	.st2{fill:#0268C5;}
	.st3{fill:#D2E0F4;}
	.st4{fill:#0155A3;}
	.st5{fill:#0256A3;}
	.st6{fill:#D1DFF4;}
	.st7{fill:#E9F5FE;}
	.st8{fill:#FCE806;}
	.st9{fill:#61B7FE;}
	.st10{fill:#5A6E78;}
	.st11{fill:#FDEDD1;}
	.st12{fill:#5DB4FC;}
	.st13{fill:#FEFEFE;}
	.st14{fill:#F8C201;}
	.st15{fill:#E5B701;}
	.st16{fill:#B8ABAB;}
	.st17{fill:#9E9595;}
	.st18{fill:#DDCFCA;}
	.st19{fill:#FADB47;}
	.st20{fill:#FADB42;}
	.st21{fill:#FBDD33;}
	.st22{fill:#FAE67B;}
	.st23{fill:#F1E6E3;}
	.st24{fill:#DFD0C6;}
	.st25{fill:#9F9696;}
	.st26{fill:#A09797;}
	.st27{fill:#EEE3E0;}
	.st28{fill:#4A91FF;}
	.st29{fill:#71BDFF;}
	.st30{fill:#4A77EC;}
	.st31{fill:#757576;}
	.st32{fill:#FEA626;}
	.st33{fill:#636363;}
	.st34{fill:#FEB64D;}
	.st35{fill:#9ADBF8;}
	.st36{fill:#B9E5FB;}
	.st37{fill:#FECB80;}
	.st38{fill:#FDCA81;}
	.st39{fill:#005DAC;}
	.st40{fill:#BCBBBC;}
	.st41{fill:#FECB7E;}
</style>
<g>
	<path class="st13" d="M80.7,56.1c0.8,1.3,1.3,2.7,1.7,4.2c0.1,0.5,0,1.4,0.7,1.4c0.6,0,0.6-0.8,0.7-1.3c0.7-3.6,2.7-6.3,6-7.9
		c1.1-0.5,1.1-1,0-1.6c-3.3-1.6-5.3-4.3-6-7.9c0-0.2-0.1-0.4-0.2-0.6c-0.1-0.3-0.1-0.7-0.5-0.7c-0.4,0-0.4,0.4-0.5,0.7
		c-0.4,1.8-0.9,3.5-1.9,5c-1.4,1.3-2.7,2.8-4.6,3.6c-0.8,0.4-0.7,1,0.1,1.4C78,53.3,79.5,54.5,80.7,56.1z"/>
	<path class="st14" d="M166.9,159.3c-1.6,0-3.2,0-4.8,0c-13,0-25.9,0-38.9,0c-0.6,0-1.3,0.1-1.9,0.1c-1.6,0-3.2,0-4.8,0
		c-2.2,0-4.5,0-6.7,0c-3.8,0-7.6-0.1-11.4-0.1c-5.4,0-10.8,0-16.2-0.1c-0.9-0.9-0.9-2.2-1.3-3.3c-0.1-0.3-0.1-0.7-0.5-0.8
		c-0.5,0-0.5,0.4-0.6,0.8c-0.4,1.1-0.3,2.4-1.2,3.4c-8.6,0-17.3,0.3-25.9-0.1c-8.7-0.5-16.1-6.9-18.2-15.4c-0.1-0.5,0-1.2-0.6-1.6
		c0-15.9,0-31.9,0-47.8c0.5-0.3,0.4-0.8,0.5-1.3c2.5-9.7,10.4-15.9,20.5-15.9c30.2,0,60.4,0,90.5,0c1.3,0,2.7,0,4,0
		c0.9,0.9,0.7,2.2,1.2,3.2c0.1,0.3,0.1,0.7,0.5,0.7c0.5,0.1,0.5-0.4,0.6-0.7c0.4-1,0.3-2.3,1.2-3.2c4.3,0,8.5,0,12.8,0
		c0.2,0.3,0.4,0.3,0.6,0c0.3,0,0.6,0,1,0c0.2,0.7,0.9,0.7,1.4,0.8c8.7,2.3,15.2,10.5,15.2,19.6c0,5.8,0,11.6,0,17.4
		c-1-0.7-2.1-1.5-3.1-2.2c-2.4-1.9-4-4.3-4.5-7.3c-0.3-1.9-0.1-3.9-0.2-5.9c-0.1-6.2-3.7-10.7-9.7-11.7c-3.7-0.7-7.5-0.2-11.3-0.2
		c-0.4,0-0.8,0-1.3,0c-27,0-54,0-81,0c-1.5,0-3.1,0.1-4.6,0c-7.6-0.5-13.7,5-13,13.1c0.1,0.6,0,1.3,0,1.9c-0.1,4.4-1.7,8-5.4,10.6
		c-1.4,1-2.9,2-4.2,3.1c-1.5,1.1-1.5,2.7,0,3.9c1.1,0.9,2.3,1.8,3.5,2.5c4.4,2.9,6.3,7,6.2,12.2c0,1.7-0.2,3.4,0.2,5.1
		c1.3,5.5,5.9,9,12,9c28.1,0,56.2,0,84.3,0c1.1,0,2.2,0,3.3,0c3.4,0,6.8,0.1,10.2,0c1.4,0,2.8-0.4,4.1-1.1c4.5-2.2,6.5-6,6.7-10.9
		c0.1-2.1-0.2-4.1,0.2-6.2c0.9-4.4,4-7,7.5-9.2c0,6,0,12,0,18c0,0.5,0,1-0.1,1.4c-1.7,9.2-7,15-16,17.5
		C167.3,158.8,166.9,158.8,166.9,159.3z"/>
	<path class="st15" d="M166.9,159.3c0.1-0.5,0.5-0.5,0.8-0.6c9-2.5,14.3-8.3,16-17.5c0.1-0.5,0.1-1,0.1-1.4c0-6,0-12,0-18
		c0.6-0.4,1.2-0.9,1.7-1.3c1.5-1.3,1.5-2.8,0-4.1c-0.6-0.5-1.2-0.9-1.7-1.3c0-5.8,0-11.6,0-17.4c0-9.1-6.5-17.3-15.2-19.6
		c-0.5-0.1-1.2-0.1-1.4-0.8c5.1,0.1,10.3-0.7,15.3,0.8c8.8,2.6,14.6,10.5,14.6,19.6c0,13.9,0,27.7,0,41.6c0,10-7.9,18.8-17.9,19.9
		C175.1,159.5,171,159.3,166.9,159.3z"/>
	<path class="st16" d="M123.5,189.2c-8.5,0-17-0.1-25.4-0.1c-1.2,0-2.3-0.2-3-1.4c-0.7-1.3-0.3-2.4,0.5-3.5
		c3.1-4.5,7.3-7.6,12.5-9.3c0.6-0.2,1.3-0.3,1.7-0.8c0.3,0,0.6,0,0.9,0c0,0.8,0.7,0.7,1.2,0.8c4.2,1.4,7.7,3.8,10.7,7.1
		C125.7,185.3,125.8,186.6,123.5,189.2z"/>
	<path class="st17" d="M123.5,189.2c2.3-2.6,2.1-3.9-0.9-7.2c-3-3.3-6.5-5.7-10.7-7.1c-0.4-0.1-1.1-0.1-1.2-0.8
		c1.9-0.4,3.8-0.3,5.7-0.4c1.7-0.1,3.3,0.4,4.9,0.6c5.9,1.6,10.7,4.9,14.1,9.9c1.7,2.5,0.6,4.9-2.4,5
		C129.9,189.4,126.7,189.2,123.5,189.2z"/>
	<path class="st18" d="M116.4,173.7c-1.9,0-3.8-0.1-5.7,0.4c-0.3,0-0.6,0-0.9,0c0-4.9,0-9.8-0.1-14.7c2.2,0,4.5,0,6.7,0
		C116.5,164.1,116.5,168.9,116.4,173.7z"/>
	<path class="st19" d="M78.6,159.2c0.9-0.9,0.9-2.2,1.2-3.4c0.1-0.4,0.1-0.8,0.6-0.8c0.4,0,0.4,0.5,0.5,0.8c0.4,1.1,0.4,2.4,1.3,3.3
		c0.7,2.4,2.6,3.7,4.6,5c0.4,0.3,1.1,0.3,1.1,1c0,0.6-0.7,0.7-1.2,0.9c-3.1,1.7-4.9,4.2-5.6,7.7c-0.1,0.5,0,1.4-0.8,1.4
		c-0.6,0-0.6-0.8-0.7-1.3c-0.4-1.6-1-3.1-1.8-4.6c1.1-1.5,2.6-2.6,4.2-3.5c0.9-0.5,1.2-0.9,0-1.4c-1.7-0.8-3.1-2-4.3-3.4
		C78,160.3,78.6,159.9,78.6,159.2z"/>
	<path class="st20" d="M152.8,77.2c-0.9,0.9-0.7,2.2-1.2,3.2c-0.1,0.3-0.1,0.8-0.6,0.7c-0.4-0.1-0.4-0.5-0.5-0.7
		c-0.4-1-0.3-2.3-1.2-3.2c0.1-0.7-0.5-1.1-0.7-1.7c1.1-1.4,2.3-2.7,4-3.5c0.4-0.2,0.9-0.4,0.9-0.8c0.1-0.5-0.5-0.6-0.9-0.8
		c-1.5-1-3.2-1.9-4.1-3.6c0.9-1.4,1.4-3.1,1.8-4.7c0.1-0.4,0-1,0.6-1c0.5,0,0.5,0.5,0.6,0.8c0.7,3.9,2.7,6.8,6.4,8.5
		c1.1,0.5,0.5,1-0.2,1.4C155.6,73.2,153.6,74.6,152.8,77.2z"/>
	<path class="st21" d="M80.7,47.4c1-1.5,1.5-3.3,1.9-5c0.1-0.3,0.1-0.7,0.5-0.7c0.4,0,0.5,0.4,0.5,0.7c0.1,0.2,0.1,0.4,0.2,0.6
		c0.7,3.6,2.7,6.3,6,7.9c1.1,0.6,1.1,1,0,1.6c-3.3,1.6-5.3,4.3-6,7.9c-0.1,0.5,0,1.3-0.7,1.3c-0.8,0-0.6-0.9-0.7-1.4
		c-0.3-1.5-0.9-2.9-1.7-4.2c1.1-1.5,2.5-2.7,4.1-3.6c1.2-0.6,1-1.1-0.1-1.6C83.1,50.1,81.8,48.9,80.7,47.4z"/>
	<path class="st16" d="M116.4,173.7c0-4.8,0-9.6,0-14.4c1.6,0,3.2,0,4.8,0c0,5,0,10,0,14.9C119.7,174.1,118.1,173.6,116.4,173.7z"/>
	<path class="st22" d="M80.7,47.4c1.1,1.4,2.4,2.7,4.1,3.5c1.1,0.5,1.3,0.9,0.1,1.6c-1.7,0.9-3,2.1-4.1,3.6
		c-1.2-1.5-2.7-2.8-4.5-3.7c-0.8-0.4-0.9-1-0.1-1.4C78,50.2,79.3,48.8,80.7,47.4z"/>
	<path class="st22" d="M148.7,66.9c0.9,1.7,2.5,2.6,4.1,3.6c0.3,0.2,0.9,0.2,0.9,0.8c-0.1,0.4-0.5,0.6-0.9,0.8
		c-1.7,0.7-2.9,2.1-4,3.5c-1.4-1.3-2.6-2.7-4.4-3.6c-1-0.5-0.9-1.1,0-1.6C146,69.6,147.4,68.4,148.7,66.9z"/>
	<path class="st22" d="M77.8,161c1.2,1.4,2.6,2.6,4.3,3.4c1.1,0.5,0.9,0.9,0,1.4c-1.6,0.9-3.1,2-4.2,3.5c-1.4-1.3-2.7-2.7-4.4-3.5
		c-0.8-0.4-1-0.9-0.1-1.4C75.1,163.6,76.4,162.3,77.8,161z"/>
	<path class="st20" d="M166.2,77.2c-0.2,0.3-0.4,0.3-0.6,0C165.8,77.2,166,77.2,166.2,77.2z"/>
	<path class="st23" d="M155.1,149.1c-1.1,0-2.2,0-3.3,0c-28.1,0-56.2,0-84.3,0c-6.1,0-10.7-3.4-12-9c-0.4-1.7-0.3-3.4-0.2-5.1
		c0.1-5.2-1.8-9.3-6.2-12.2c-1.2-0.8-2.3-1.7-3.5-2.5c-1.5-1.2-1.5-2.7,0-3.9c1.4-1.1,2.8-2.1,4.2-3.1c3.7-2.6,5.3-6.2,5.4-10.6
		c0-0.6,0-1.3,0-1.9c-0.7-8.1,5.4-13.6,13-13.1c1.5,0.1,3.1,0,4.6,0c27,0,54,0,81,0c0.4,0,0.8,0,1.3,0c0.2,0.1,0.5,0.2,0.7,0.2
		c4.6,1.3,7.8,4.1,8.7,8.9c0.5,2.5,0.5,5,0.5,7.6c0,3.2,1.6,5.8,3.9,7.9c1.6,1.4,3.4,2.6,5.2,3.9c1.9,1.4,1.9,2.9,0,4.3
		c-1.7,1.3-3.6,2.5-5.2,3.9c-2.4,2.1-3.8,4.7-3.9,7.9c-0.1,3.1,0.1,6.3-0.9,9.3C162.6,145.8,159.3,148,155.1,149.1z M116.5,116.8
		c0,1.8,0,3.5,0,5.3c0,0.8,0.3,1.3,1.2,1.3c0.9,0,1.4-0.4,1.4-1.3c0-1.1,0-2.1,0-3.2c0-0.8,0.4-1,1.1-1c1.3,0.1,1.8,1,2.3,1.9
		c0.4,0.9,0.7,1.9,1.2,2.8c0.5,1,1.4,1.1,2.3,0.6c1-0.5,0.4-1.1,0.1-1.7c-0.5-1.1-1-2.3-1.7-3.2c-0.6-0.8-0.4-1,0.2-1.5
		c1.3-1.1,1.7-2.7,1.1-4.3c-0.6-1.6-1.8-2.4-3.5-2.5c-1.2,0-2.3,0-3.5,0c-1.4-0.1-2.1,0.5-2,2C116.5,113.5,116.5,115.2,116.5,116.8z
		 M67.4,116.8c0,1.8,0,3.6,0,5.4c0,0.8,0.4,1.1,1.2,1.2c0.8,0,1.4-0.2,1.4-1.1c0-1,0-2,0-3c0-1.2,0.7-1.7,1.8-1.1
		c0.7,0.3,1.1,0.9,1.4,1.6c0.4,1,0.8,2,1.3,2.9c0.5,1,1.6,0.9,2.4,0.6c1-0.5,0.2-1.2,0-1.7c-0.5-1-0.9-2.1-1.5-3
		c-0.5-0.8-0.7-1.1,0.2-1.8c1.4-1.1,1.5-2.6,1-4.2c-0.5-1.6-1.8-2.5-3.5-2.5c-1.3,0-2.5,0-3.8,0c-1.2,0-1.7,0.6-1.7,1.8
		C67.4,113.4,67.4,115.1,67.4,116.8z M153.8,116.6c0,1.6,0,3.2,0,4.8c0,0.9,0.4,1.5,1.2,1.8c4.1,1.4,7.7-0.7,8.5-4.9
		c1.1-5.2-1.5-8.4-6.7-8.4c-0.4,0-0.7,0-1.1,0c-1.4-0.1-1.9,0.6-2,1.9C153.8,113.4,153.8,115,153.8,116.6z M96.4,109.7
		c-2.5,0-4.4,1.3-4.8,2.9c-0.5,2,0.5,3.6,2.9,4.5c0.8,0.3,1.6,0.5,2.4,0.8c1,0.4,1.7,1,1.3,2.2c-0.4,1.1-1.3,1.4-2.4,1.2
		c-1-0.2-1.5-0.9-1.9-1.7c-0.4-0.8-1.2-0.9-1.9-0.5c-0.8,0.3-0.6,1-0.3,1.6c0.7,1.9,3,3.2,5.1,3c2.2-0.2,3.8-1.6,4.1-3.4
		c0.4-2.2-0.4-3.5-2.8-4.5c-0.8-0.3-1.6-0.5-2.4-0.7c-0.8-0.2-1.5-0.8-1.4-1.7c0.1-1,0.9-1.3,1.7-1.4c1.1-0.1,1.8,0.5,2.3,1.4
		c0.5,0.7,1.1,1,1.9,0.5c0.8-0.5,0.5-1.2,0.2-1.8C99.5,110.2,97.8,109.8,96.4,109.7z M80.8,116.5c0,1.5,0,3.1,0,4.6
		c0,1.1,0.4,2.2,1.8,2.2c1.7,0.1,3.4,0,5.1,0c0.8,0,1.1-0.5,1.1-1.2c0-0.8-0.4-1-1.1-1c-0.8,0-1.7-0.1-2.5,0
		c-1.3,0.1-1.6-0.4-1.6-1.6c-0.1-1.5,0.4-2.1,2-1.9c0.5,0.1,1.1,0,1.6,0c0.7,0,1-0.4,1-1.1c0-0.7-0.2-1.2-0.9-1.3
		c-0.7-0.1-1.4-0.1-2.1-0.1c-1.1,0.1-1.6-0.2-1.6-1.5c0-1.2,0.4-1.6,1.6-1.5c0.8,0.1,1.7,0,2.5,0c0.8,0,1.1-0.4,1.2-1.2
		c0-0.8-0.4-1.1-1.2-1.1c-1.5,0-3.1,0.1-4.6,0c-1.5-0.1-2.1,0.7-2.2,2.1C80.8,113.5,80.8,115,80.8,116.5z M142,116.5
		c0,1.6,0,3.3,0,4.9c0,1.1,0.6,1.8,1.7,1.9c1.7,0.1,3.4,0,5.1,0c0.8,0,1.1-0.4,1.1-1.2c0-0.9-0.5-1.1-1.2-1c-0.8,0-1.7-0.1-2.5,0
		c-1.2,0.1-1.6-0.4-1.7-1.6c-0.1-1.6,0.4-2.1,2-1.9c0.5,0.1,1.1,0,1.6,0c0.8,0,1.2-0.3,1.2-1.1c0-0.8-0.4-1.3-1.2-1.3
		c-0.6,0-1.3-0.1-1.9,0c-1.1,0.1-1.7-0.1-1.6-1.4c0-1.2,0.4-1.6,1.6-1.5c0.8,0.1,1.7,0,2.5,0c0.8,0,1.3-0.3,1.3-1.2
		c0-0.8-0.5-1.1-1.2-1.1c-1.6,0-3.2,0-4.8,0c-1.3,0-1.9,0.7-1.9,2C142,113.4,142,115,142,116.5z M104.7,116.6c0,1.6,0,3.2,0,4.8
		c0,1.2,0.6,1.9,1.8,1.9c1.6,0,3.3,0,4.9,0c0.8,0,1.2-0.3,1.2-1.1c0-0.8-0.4-1.2-1.2-1.1c-1,0-2,0-3,0c-0.4,0-0.9,0-1.1-0.4
		c-0.8-1.5,0.1-3,1.8-3c0.6,0,1.2,0,1.8,0c0.8-0.1,1.1-0.5,1.1-1.3c0-0.7-0.4-1.1-1.1-1.1c-0.7,0-1.4-0.1-2.1,0
		c-1.1,0.1-1.6-0.2-1.6-1.5c0-1.2,0.4-1.6,1.6-1.5c0.9,0.1,1.8,0,2.7,0c0.8,0,1.2-0.4,1.2-1.2c0-0.8-0.5-1.1-1.2-1.1
		c-1.6,0-3.3,0-4.9,0c-1.3,0-1.8,0.6-1.8,1.9C104.7,113.4,104.7,115,104.7,116.6z M133.6,119.6c-0.2-0.9-0.4-1.4-0.5-1.9
		c-0.6-2.2-1.2-4.4-1.8-6.6c-0.3-1.1-1.1-1.4-2.1-1.2c-1.1,0.3-0.5,1.1-0.3,1.7c1,3.5,2,6.9,3,10.4c0.2,0.8,0.7,1.4,1.7,1.4
		c0.8,0,1.5-0.3,1.7-1.1c1.1-3.7,2.1-7.3,3.2-11c0.1-0.4,0.3-1-0.3-1.3c-0.6-0.3-1.3-0.2-1.8,0.2c-0.3,0.3-0.4,0.7-0.5,1.1
		C135.2,114,134.4,116.6,133.6,119.6z"/>
	<path class="st24" d="M155.1,149.1c4.2-1.1,7.5-3.3,9-7.5c1-3,0.8-6.1,0.9-9.3c0.1-3.2,1.6-5.8,3.9-7.9c1.6-1.4,3.4-2.6,5.2-3.9
		c1.9-1.4,1.9-2.9,0-4.3c-1.7-1.3-3.6-2.5-5.2-3.9c-2.3-2.1-3.9-4.7-3.9-7.9c0-2.5,0-5.1-0.5-7.6c-0.9-4.8-4.1-7.6-8.7-8.9
		c-0.2-0.1-0.5-0.2-0.7-0.2c3.8-0.1,7.6-0.5,11.3,0.2c6,1.1,9.6,5.6,9.7,11.7c0,2-0.1,4,0.2,5.9c0.5,3,2.1,5.4,4.5,7.3
		c1,0.8,2.1,1.5,3.1,2.2c0.6,0.4,1.2,0.9,1.7,1.3c1.5,1.3,1.5,2.8,0,4.1c-0.6,0.5-1.2,0.9-1.7,1.3c-3.5,2.2-6.6,4.8-7.5,9.2
		c-0.4,2-0.2,4.1-0.2,6.2c-0.2,4.9-2.2,8.6-6.7,10.9c-1.3,0.7-2.7,1-4.1,1.1C161.9,149.2,158.5,149.1,155.1,149.1z"/>
	<path class="st25" d="M116.5,116.8c0-1.6,0-3.3,0-4.9c0-1.5,0.6-2,2-2c1.2,0,2.3,0,3.5,0c1.7,0.1,2.9,0.9,3.5,2.5
		c0.6,1.6,0.3,3.2-1.1,4.3c-0.6,0.5-0.8,0.8-0.2,1.5c0.7,1,1.1,2.1,1.7,3.2c0.3,0.6,0.9,1.2-0.1,1.7c-0.9,0.4-1.8,0.4-2.3-0.6
		c-0.4-0.9-0.7-1.9-1.2-2.8c-0.5-1-1-1.9-2.3-1.9c-0.7,0-1.1,0.2-1.1,1c0,1.1,0,2.1,0,3.2c0,1-0.4,1.3-1.4,1.3
		c-0.9,0-1.2-0.5-1.2-1.3C116.5,120.3,116.5,118.6,116.5,116.8z M120.5,115.7c1.8,0,2.7-0.6,2.6-1.8c-0.2-1.5-1.2-1.7-2.5-1.8
		c-1.4-0.1-1.6,0.5-1.6,1.8C119,115.1,119,116.1,120.5,115.7z"/>
	<path class="st25" d="M67.4,116.8c0-1.7,0-3.4,0-5.1c0-1.2,0.5-1.8,1.7-1.8c1.3,0,2.6,0,3.8,0c1.7,0.1,3,0.9,3.5,2.5
		c0.5,1.6,0.4,3.1-1,4.2c-0.9,0.7-0.7,1-0.2,1.8c0.6,0.9,1,2,1.5,3c0.3,0.6,1,1.3,0,1.7c-0.8,0.4-1.8,0.5-2.4-0.6
		c-0.5-0.9-0.9-1.9-1.3-2.9c-0.3-0.7-0.7-1.3-1.4-1.6c-1.1-0.5-1.8-0.1-1.8,1.1c0,1,0,2,0,3c0,0.9-0.6,1.2-1.4,1.1
		c-0.8,0-1.2-0.3-1.2-1.2C67.4,120.4,67.4,118.6,67.4,116.8z M69.9,113.9c-0.3,1.3,0.1,2,1.6,1.8c1.6-0.1,2.5-0.6,2.4-1.8
		c-0.1-1.5-1.2-1.7-2.5-1.8C70.1,112.1,69.6,112.6,69.9,113.9z"/>
	<path class="st26" d="M153.8,116.6c0-1.6,0-3.2,0-4.8c0-1.3,0.6-2,2-1.9c0.4,0,0.7,0,1.1,0c5.2,0,7.7,3.2,6.7,8.4
		c-0.8,4.2-4.5,6.3-8.5,4.9c-0.9-0.3-1.2-0.9-1.2-1.8C153.8,119.8,153.8,118.2,153.8,116.6z M156.4,116.5c0,1.1,0,2.2,0,3.3
		c0,0.1,0,0.1,0,0.2c0,0.5,0.1,0.9,0.7,1.1c1.4,0.4,3.4-0.6,3.7-2c0.3-1.4,0.5-2.9,0.1-4.4c-0.6-2-1.4-2.6-3.4-2.5
		c-0.8,0-1.2,0.3-1.1,1.1C156.4,114.3,156.4,115.4,156.4,116.5z"/>
	<path class="st26" d="M96.4,109.7c1.4,0.1,3,0.6,3.9,2.3c0.3,0.6,0.6,1.3-0.2,1.8c-0.8,0.5-1.4,0.2-1.9-0.5
		c-0.6-0.8-1.2-1.5-2.3-1.4c-0.8,0.1-1.6,0.4-1.7,1.4c-0.1,0.9,0.5,1.5,1.4,1.7c0.8,0.2,1.7,0.4,2.4,0.7c2.4,1.1,3.2,2.4,2.8,4.5
		c-0.3,1.8-1.9,3.1-4.1,3.4c-2.2,0.2-4.4-1.1-5.1-3c-0.2-0.6-0.5-1.3,0.3-1.6c0.7-0.3,1.5-0.3,1.9,0.5c0.4,0.9,0.9,1.5,1.9,1.7
		c1.1,0.2,2-0.1,2.4-1.2c0.4-1.2-0.2-1.8-1.3-2.2c-0.8-0.3-1.6-0.5-2.4-0.8c-2.4-0.9-3.3-2.5-2.9-4.5
		C92,110.9,93.9,109.6,96.4,109.7z"/>
	<path class="st25" d="M80.8,116.5c0-1.5,0-3,0-4.5c0-1.4,0.6-2.2,2.2-2.1c1.5,0.1,3.1,0,4.6,0c0.8,0,1.2,0.3,1.2,1.1
		c0,0.8-0.3,1.2-1.2,1.2c-0.8,0-1.7,0.1-2.5,0c-1.2-0.1-1.6,0.3-1.6,1.5c0,1.3,0.5,1.6,1.6,1.5c0.7-0.1,1.4,0,2.1,0.1
		c0.7,0.1,0.9,0.6,0.9,1.3c0,0.7-0.3,1.1-1,1.1c-0.5,0-1.1,0.1-1.6,0c-1.5-0.2-2,0.4-2,1.9c0.1,1.2,0.3,1.8,1.6,1.6
		c0.8-0.1,1.7,0,2.5,0c0.7,0,1.1,0.2,1.1,1c0,0.8-0.2,1.2-1.1,1.2c-1.7,0-3.4,0-5.1,0c-1.4,0-1.7-1.1-1.8-2.2
		C80.8,119.6,80.8,118,80.8,116.5z"/>
	<path class="st26" d="M142,116.5c0-1.5,0-3.1,0-4.6c0-1.3,0.6-2,1.9-2c1.6,0,3.2,0,4.8,0c0.8,0,1.2,0.2,1.2,1.1
		c0,0.9-0.5,1.2-1.3,1.2c-0.8,0-1.7,0.1-2.5,0c-1.2-0.1-1.6,0.3-1.6,1.5c0,1.3,0.6,1.5,1.6,1.4c0.6-0.1,1.3,0,1.9,0
		c0.8,0,1.3,0.5,1.2,1.3c0,0.8-0.5,1.1-1.2,1.1c-0.5,0-1.1,0.1-1.6,0c-1.5-0.2-2,0.4-2,1.9c0.1,1.3,0.4,1.7,1.7,1.6
		c0.8-0.1,1.7,0,2.5,0c0.7,0,1.2,0.2,1.2,1c0,0.8-0.3,1.2-1.1,1.2c-1.7,0-3.4,0-5.1,0c-1.1,0-1.7-0.7-1.7-1.9
		C142,119.8,142,118.2,142,116.5z"/>
	<path class="st26" d="M104.7,116.6c0-1.6,0-3.2,0-4.8c0-1.3,0.5-1.9,1.8-1.9c1.6,0,3.3,0,4.9,0c0.8,0,1.2,0.3,1.2,1.1
		c0,0.8-0.4,1.2-1.2,1.2c-0.9,0-1.8,0.1-2.7,0c-1.2-0.1-1.6,0.3-1.6,1.5c0,1.3,0.5,1.6,1.6,1.5c0.7-0.1,1.4,0,2.1,0
		c0.7,0,1.1,0.5,1.1,1.1c0,0.7-0.4,1.2-1.1,1.3c-0.6,0-1.2,0-1.8,0c-1.6,0-2.5,1.6-1.8,3c0.3,0.5,0.7,0.4,1.1,0.4c1,0,2,0,3,0
		c0.8,0,1.2,0.3,1.2,1.1c0,0.8-0.5,1.1-1.2,1.1c-1.6,0-3.3,0-4.9,0c-1.2,0-1.8-0.7-1.8-1.9C104.7,119.8,104.7,118.2,104.7,116.6z"/>
	<path class="st26" d="M133.6,119.6c0.9-3,1.6-5.6,2.3-8.2c0.1-0.4,0.2-0.8,0.5-1.1c0.5-0.5,1.2-0.5,1.8-0.2
		c0.5,0.2,0.4,0.9,0.3,1.3c-1,3.7-2.1,7.3-3.2,11c-0.2,0.8-0.9,1.1-1.7,1.1c-1,0-1.4-0.5-1.7-1.4c-1-3.5-2-6.9-3-10.4
		c-0.2-0.6-0.7-1.4,0.3-1.7c0.9-0.2,1.8,0,2.1,1.2c0.6,2.2,1.2,4.4,1.8,6.6C133.2,118.2,133.3,118.7,133.6,119.6z"/>
	<path class="st27" d="M120.5,115.7c-1.5,0.4-1.5-0.6-1.5-1.8c0-1.2,0.2-1.8,1.6-1.8c1.3,0.1,2.3,0.3,2.5,1.8
		C123.2,115.1,122.3,115.7,120.5,115.7z"/>
	<path class="st23" d="M69.9,113.9c-0.3-1.3,0.2-1.8,1.6-1.7c1.3,0.1,2.4,0.2,2.5,1.8c0.1,1.2-0.8,1.7-2.4,1.8
		C70,115.9,69.7,115.2,69.9,113.9z"/>
	<path class="st27" d="M156.4,116.5c0-1.1,0-2.1,0-3.2c0-0.8,0.3-1.1,1.1-1.1c2.1-0.1,2.9,0.5,3.4,2.5c0.4,1.5,0.2,2.9-0.1,4.4
		c-0.3,1.4-2.3,2.4-3.7,2c-0.6-0.2-0.7-0.6-0.7-1.1c0-0.1,0-0.1,0-0.2C156.4,118.7,156.4,117.6,156.4,116.5z"/>
</g>
</svg>
