<?xml version="1.0" encoding="utf-8"?>
<!-- Generator: Adobe Illustrator 24.2.3, SVG Export Plug-In . SVG Version: 6.00 Build 0)  -->
<svg version="1.1" id="Layer_1" xmlns="http://www.w3.org/2000/svg" xmlns:xlink="http://www.w3.org/1999/xlink" x="0px" y="0px"
	 viewBox="0 0 231 231" style="enable-background:new 0 0 231 231;" xml:space="preserve">
<style type="text/css">
	.st0{fill:#98BCE4;}
	.st1{fill:#B2CDEB;}
	.st2{fill:#0268C5;}
	.st3{fill:#D2E0F4;}
	.st4{fill:#0155A3;}
	.st5{fill:#0256A3;}
	.st6{fill:#D1DFF4;}
	.st7{fill:#E9F5FE;}
	.st8{fill:#FCE806;}
	.st9{fill:#61B7FE;}
	.st10{fill:#5A6E78;}
	.st11{fill:#FDEDD1;}
	.st12{fill:#5DB4FC;}
	.st13{fill:#FEFEFE;}
	.st14{fill:#F8C201;}
	.st15{fill:#E5B701;}
	.st16{fill:#B8ABAB;}
	.st17{fill:#9E9595;}
	.st18{fill:#DDCFCA;}
	.st19{fill:#FADB47;}
	.st20{fill:#FADB42;}
	.st21{fill:#FBDD33;}
	.st22{fill:#FAE67B;}
	.st23{fill:#F1E6E3;}
	.st24{fill:#DFD0C6;}
	.st25{fill:#9F9696;}
	.st26{fill:#A09797;}
	.st27{fill:#EEE3E0;}
	.st28{fill:#4A91FF;}
	.st29{fill:#71BDFF;}
	.st30{fill:#4A77EC;}
	.st31{fill:#757576;}
	.st32{fill:#FEA626;}
	.st33{fill:#636363;}
	.st34{fill:#FEB64D;}
	.st35{fill:#9ADBF8;}
	.st36{fill:#B9E5FB;}
	.st37{fill:#FECB80;}
	.st38{fill:#FDCA81;}
	.st39{fill:#005DAC;}
	.st40{fill:#BCBBBC;}
	.st41{fill:#FECB7E;}
</style>
<g>
	<path class="st28" d="M25,130.4c0-12,0-23.9,0-35.9c1.1-0.4,0.8-1.4,1-2.1c3.1-12.4,15.5-22.1,28.3-22.1c40.3,0,80.6,0,120.9,0
		c1.7,0,3.3,0.1,5,0.3c11.8,1.7,21.7,10.5,24.7,22c0.2,0.7-0.1,1.7,1,1.9c0,12,0,23.9,0,35.9c-0.1,0.1-0.2,0.2-0.2,0.3
		c-1.7,8.1-7.2,13.3-15.2,14.5c-3.3,0.5-3.8,0.2-5.3-2.8c-0.3-0.6-0.6-1.2-0.9-1.7c-4.3-7.8-13.2-12-21.6-10.9
		c-8.5,1.2-14.5,5.9-17.8,13.9c-0.5,1.4-1.3,1.7-2.6,1.7c-2.7-0.1-5.5,0-8.2,0c0-0.8-0.1-1.6-0.1-2.3c0-8.8,0-17.6,0-26.4
		c0-2.7-0.9-4.9-3.1-6.5c-1.6-1.6-3.7-2.2-5.9-2.2c-5.3,0-10.5,0-15.8,0c-6,0-9.6,3.5-9.6,9.6c0,9.3,0,18.6-0.1,27.9
		c-2.7,0.5-4.6-0.3-5.3-3.2c-0.1-0.5-0.4-0.9-0.7-1.4c-4.3-7.8-13.3-12-21.6-10.9c-8.6,1.2-14.6,6-17.9,14.1c-0.4,1.1-1,1.5-2.1,1.5
		c-3.6-0.1-7.3,0.1-10.9-0.1c-4.8-0.3-8.8-2.2-12.1-5.8C27,136.7,25.9,133.6,25,130.4z M160.4,98.3c3.9,0,7.9,0.1,11.8,0
		c3.3,0,5.6-2.4,5.7-5.6c0-0.7,0-1.4,0-2.1c0-2.1,0-4.2,0-6.3c-0.8-2.9-2.6-4.6-5.7-4.7c-4.9-0.1-9.7,0-14.6,0
		c-1.2,0-1.6,0.4-1.6,1.6c0.1,4.7,0,9.4,0,14c-0.1,3.8-0.3,3.1,3.2,3.1C159.7,98.3,160,98.3,160.4,98.3z M149.8,93.2c0-3,0-6,0-9
		c0-0.9-0.1-1.8,0.1-2.7c0.2-1.5-0.3-2-1.9-2c-3.9,0.1-7.9,0.1-11.8,0c-1.4,0-2,0.3-1.9,1.8c0.1,3,0,6.1,0,9.1c0,2.2,0,4.5,0,6.7
		c-0.2,1.2,0.7,1.1,1.5,1.1c3,0,6.1,0,9.1,0C149.9,98.3,149.9,98.3,149.8,93.2z M115.1,98.3c3.8,0,7.5,0,11.3,0
		c1.2,0,1.6-0.4,1.6-1.6c-0.1-1.9,0-3.9,0-5.9c0-2.2,0-4.4,0-6.7c0-0.9-0.1-1.8,0-2.7c0.2-1.5-0.4-2-1.9-2c-4.7,0.1-9.4,0-14,0
		c-3.6,0-5.9,2.3-5.9,5.8c0,2.7,0,5.5,0,8.2c0,1.6,1,2.7,2.1,3.7C110.4,99,112.8,98.1,115.1,98.3z M87.4,85.1c0-1.3,0-2.6,0-3.8
		c0-1.4-0.6-2.5-1.9-3.2c-0.9-1.1-2-1.6-3.4-1.6c-8.3,0-16.6,0-25,0c-2.2,0-4,0.9-4.9,2.9c-1.2,2.6-2.3,5.2-3.1,7.9
		c-1.4,1.9-1.7,4.3-2.6,6.4c-1,2.3-0.4,4.4,1.5,6.1c1.1,1.1,2.5,1.6,4,1.6c9.8,0,19.6,0,29.5,0c3.6,0,5.9-2.3,5.9-5.8
		C87.4,92.1,87.4,88.6,87.4,85.1z M174.3,113.9c7,0,14,0,21.1,0c4.6,0,4.6,0,4.5-4.6c0-1.3-0.4-1.6-1.7-1.6c-15.8,0-31.6,0-47.4,0
		c-0.6,0-1.2,0-1.7,0.3c-1.3,0.8-2.1,1.8-1.8,3.4c0.4,1.7,1.5,2.6,3.4,2.6C158.5,113.9,166.4,113.9,174.3,113.9z M183.5,123.3
		c4,0,7.9,0,11.9,0c4.4,0,4.4,0,4.4-4.3c0-1.6-0.5-1.9-2-1.9c-9.5,0.1-19,0-28.5,0c-2.5,0-3.9,1.1-3.9,3.1c0,2.1,1.4,3.2,4,3.2
		C174.2,123.3,178.8,123.3,183.5,123.3z M37.4,120.2c0-2.9-2-5.4-4.8-6.1c-0.9-0.2-1.5-0.2-1.5,1c0,3.4,0,6.7,0,10.1
		c0,1.1,0.5,1.3,1.5,1.1C35.4,125.6,37.4,123.1,37.4,120.2z M79.6,113.9c3.3,0,4.6-0.9,4.7-3c0.1-2.3-1.3-3.2-4.7-3.2
		c-3.3,0-4.6,0.9-4.7,3C74.8,113,76.2,113.9,79.6,113.9z"/>
	<path class="st29" d="M206,94.4c-1-0.3-0.8-1.3-1-1.9c-3-11.5-12.9-20.3-24.7-22c-1.7-0.2-3.3-0.3-5-0.3c-40.3,0-80.6,0-120.9,0
		c-12.8,0-25.2,9.7-28.3,22.1c-0.2,0.7,0.1,1.8-1,2.1c-0.4-7.5,2.2-14,6.9-19.7c5-6.1,11.6-9.4,19.2-10.7c0.6-0.1,1.3-0.1,1.9-0.1
		c41.6,0,83.3-0.1,124.9,0c6.4,0,12.1,2.6,17.1,6.7c6.2,5,9.6,11.6,10.9,19.3C206.2,91.5,206.1,93,206,94.4z"/>
	<path class="st30" d="M25,130.4c0.9,3.3,2,6.3,4.3,8.9c3.3,3.6,7.3,5.5,12.1,5.8c3.6,0.2,7.3,0,10.9,0.1c1.1,0,1.7-0.4,2.1-1.5
		c3.3-8.1,9.3-12.9,17.9-14.1c8.3-1.2,17.3,3,21.6,10.9c0.2,0.5,0.6,0.9,0.7,1.4c0.7,2.9,2.6,3.7,5.3,3.2c0,1,0.1,2.1,0.1,3.1
		c0,2.1,0,4.1-0.1,6.2c-3.2,0-6.3,0-9.5,0c0-0.8,0.1-1.7,0.1-2.5c0.1-4.7-1.4-8.8-5.1-11.9l0,0c-0.1-0.1-0.3-0.3-0.4-0.4
		c-5.2-4.7-12.9-5.2-18.9-1.1c-5.6,3.8-7.4,9.4-6.8,16c-6.3,0-12.6,0.2-18.9,0c-8.2-0.3-15.5-8.1-15.6-16.3
		C24.9,135.6,25,133,25,130.4z"/>
	<path class="st30" d="M134.3,145.2c2.7,0,5.5-0.1,8.2,0c1.3,0,2-0.3,2.6-1.7c3.2-8,9.3-12.7,17.8-13.9c8.3-1.2,17.3,3.1,21.6,10.9
		c0.3,0.6,0.6,1.2,0.9,1.7c1.5,3.1,2,3.3,5.3,2.8c8-1.1,13.5-6.4,15.2-14.5c0-0.1,0.2-0.2,0.2-0.3c-0.1,4.3,0.6,8.7-0.9,12.9
		c-2.4,6.7-8.8,11.2-15.9,11.3c-2.7,0-5.4,0-8.2-0.1c0-0.8,0.1-1.7,0.1-2.5c0.1-4.7-1.4-8.8-5.1-11.9l0,0c-0.1-0.1-0.3-0.3-0.4-0.4
		c-2.6-2.4-5.8-3.7-9.3-3.8c-10.4-0.4-18,8.4-16.2,18.7c-5.3,0-10.6-0.1-15.9-0.1C134.3,151.4,134.3,148.3,134.3,145.2z"/>
	<path class="st31" d="M59.4,154.4c-0.6-6.6,1.1-12.1,6.8-16c6-4.1,13.7-3.5,18.9,1.1c0.1,0.1,0.3,0.3,0.4,0.4c0,0,0,0,0,0
		c-0.1,0.5,0.1,1,0.3,1.5c1.4,3.1,1.9,6.2,1.3,9.6c-1.5,8.3-9.9,14-17.9,12.5c-2-0.4-3.7-1.6-5.7-1.6
		C61.2,159.9,60.4,157.2,59.4,154.4z M75,142c-5.1,0-9.4,4.3-9.4,9.4c0,5,4.3,9.3,9.3,9.3c5.2,0,9.4-4.2,9.4-9.4
		C84.3,146.4,80,142,75,142z"/>
	<path class="st31" d="M150.2,154.6c-1.8-10.3,5.8-19.1,16.2-18.7c3.5,0.1,6.7,1.4,9.3,3.8c0.1,0.1,0.3,0.3,0.4,0.4c0,0,0,0,0,0
		c-0.1,0.5,0.1,1,0.3,1.5c1.4,3.1,1.9,6.2,1.3,9.6c-1.5,8.3-9.9,14-17.9,12.5c-2-0.4-3.7-1.6-5.7-1.6
		C151.9,159.9,150.8,157.4,150.2,154.6z M165.6,142c-5.2,0-9.4,4.2-9.5,9.3c-0.1,5,4.2,9.4,9.2,9.4c5.2,0,9.4-4.2,9.5-9.3
		C174.9,146.4,170.6,142.1,165.6,142z"/>
	<path class="st32" d="M134.3,145.2c0,3.1,0,6.2-0.1,9.3c-11.4,0-22.9,0-34.3,0c0-2.1,0-4.1,0.1-6.2c7.9,0,15.7,0,23.6,0
		c4.7,0,7.6-3,7.6-7.7c0-10.3,0-20.5,0-30.8c2.2,1.6,3.1,3.9,3.1,6.5c0,8.8,0,17.6,0,26.4C134.2,143.6,134.3,144.4,134.3,145.2z"/>
	<path class="st33" d="M63.4,162c2,0,3.8,1.2,5.7,1.6c8,1.6,16.4-4.1,17.9-12.5c0.6-3.4,0.1-6.5-1.3-9.6c-0.2-0.5-0.4-1-0.3-1.5
		c3.7,3.1,5.2,7.1,5.1,11.9c0,0.8-0.1,1.7-0.1,2.5c-1.6,5.8-4.9,10.1-10.9,11.9C73.4,168.1,67.9,166.8,63.4,162z"/>
	<path class="st33" d="M154,162c2,0,3.8,1.2,5.7,1.6c8,1.6,16.4-4.1,17.9-12.5c0.6-3.4,0.1-6.5-1.3-9.6c-0.2-0.5-0.4-1-0.3-1.5
		c3.7,3.1,5.2,7.1,5.1,11.9c0,0.8-0.1,1.7-0.1,2.5c-1.6,5.8-4.9,10.1-10.9,11.9C163.9,168.1,158.5,166.8,154,162z"/>
	<path class="st34" d="M131.1,109.9c0,10.3,0,20.5,0,30.8c0,4.7-3,7.7-7.6,7.7c-7.9,0-15.7,0-23.6,0c0-1-0.1-2.1-0.1-3.1
		c0-9.3,0-18.6,0.1-27.9c0-6,3.5-9.6,9.6-9.6c5.3,0,10.5,0,15.8,0C127.5,107.7,129.5,108.2,131.1,109.9z M123.4,132.7
		c0.5,0,0.9,0,1.4,0c2-0.1,3.2-1.3,3.2-3.1c0-1.8-1.2-3-3.2-3.1c-1.1,0-2.2-0.1-3.3,0c-1.7,0.1-2.8,1.4-2.8,3.1
		c0,1.7,1.1,2.9,2.8,3.1C122.1,132.7,122.8,132.7,123.4,132.7z"/>
	<path class="st35" d="M48,99.9c-1.9-1.7-2.5-3.8-1.5-6.1c0.9-2.1,1.2-4.5,2.6-6.4c0.5,0.7,1,0.3,1.6,0.1c5.8-1.6,11.6-3.2,17.4-4.8
		c5.8-1.6,11.5-3.4,17.4-4.7c1.3,0.7,1.9,1.8,1.9,3.2c0,1.3,0,2.6,0,3.8c-10.2,3.7-20.4,7.4-30.6,11.3C53.8,97.4,50.6,98.1,48,99.9z
		"/>
	<path class="st36" d="M48,99.9c2.7-1.8,5.8-2.5,8.8-3.6c10.2-3.8,20.4-7.5,30.6-11.3c0,3.5,0.1,7,0,10.5c0,3.5-2.4,5.8-5.9,5.8
		c-9.8,0-19.6,0-29.5,0C50.4,101.4,49.1,101,48,99.9z"/>
	<path class="st37" d="M174.3,113.9c-7.9,0-15.7,0-23.6,0c-1.9,0-3-1-3.4-2.6c-0.4-1.5,0.5-2.6,1.8-3.4c0.5-0.3,1.1-0.3,1.7-0.3
		c15.8,0,31.6,0,47.4,0c1.3,0,1.7,0.4,1.7,1.6c0,4.6,0.1,4.6-4.5,4.6C188.3,113.9,181.3,113.9,174.3,113.9z"/>
	<path class="st36" d="M156.1,95.2c0-4.7,0-9.4,0-14c0-1.2,0.4-1.6,1.6-1.6c4.9,0.1,9.7,0,14.6,0c3.1,0,4.9,1.8,5.7,4.7
		C170.7,87.9,163.4,91.5,156.1,95.2z"/>
	<path class="st37" d="M183.5,123.3c-4.7,0-9.4,0-14.1,0c-2.6,0-4-1.1-4-3.2c0-2,1.4-3.1,3.9-3.1c9.5,0,19,0,28.5,0
		c1.5,0,2,0.3,2,1.9c-0.1,4.3,0,4.3-4.4,4.3C191.5,123.3,187.5,123.3,183.5,123.3z"/>
	<path class="st36" d="M85.5,78c-5.9,1.3-11.6,3.1-17.4,4.7c-5.8,1.6-11.6,3.2-17.4,4.8c-0.6,0.2-1.1,0.5-1.6-0.1
		c0.8-2.7,1.9-5.4,3.1-7.9c0.9-2,2.8-2.9,4.9-2.9c8.3,0,16.6,0,25,0C83.4,76.4,84.6,76.9,85.5,78z"/>
	<path class="st36" d="M106.1,93.6c0-2.7-0.1-5.5,0-8.2c0-3.5,2.4-5.8,5.9-5.8c4.7,0,9.4,0.1,14,0c1.6,0,2.1,0.5,1.9,2
		c-0.1,0.9,0,1.8,0,2.7c-2.5,1.1-5,2.1-7.5,3.2C115.7,89.5,110.9,91.5,106.1,93.6z"/>
	<path class="st35" d="M106.1,93.6c4.8-2.1,9.6-4.1,14.4-6.2c2.5-1.1,5-2.1,7.5-3.2c0,2.2,0,4.4,0,6.7c-4.4,2.3-8.7,4.6-12.8,7.4
		c-2.3-0.2-4.8,0.7-6.9-1C107.1,96.3,106.2,95.2,106.1,93.6z"/>
	<path class="st36" d="M134.3,90.5c0-3,0.1-6.1,0-9.1c-0.1-1.5,0.5-1.9,1.9-1.8c3.9,0.1,7.9,0.1,11.8,0c1.6,0,2.1,0.5,1.9,2
		c-0.1,0.9,0,1.8-0.1,2.7c-2.8,0.9-5.5,2.3-8.2,3.4C139.1,88.5,136.9,90,134.3,90.5z"/>
	<path class="st35" d="M134.3,90.5c2.6-0.5,4.9-2,7.3-2.9c2.8-1,5.4-2.5,8.2-3.4c0,3,0,6,0,9c-1.3-0.1-2.4,0.4-3.6,0.7
		c-4,1-7.9,2.5-12,3.2C134.3,94.9,134.3,92.7,134.3,90.5z"/>
	<path class="st35" d="M156.1,95.2c7.3-3.6,14.5-7.3,21.8-10.9c0,2.1,0,4.2,0,6.3c-2,0.5-3.8,1.5-5.7,2.4c-4,1.7-7.9,3.6-11.8,5.4
		c-0.4,0-0.8,0-1.2,0C155.8,98.2,156.1,98.9,156.1,95.2z"/>
	<path class="st36" d="M160.4,98.3c3.9-1.8,7.8-3.7,11.8-5.4c1.9-0.8,3.7-1.9,5.7-2.4c0,0.7,0,1.4,0,2.1c-0.1,3.3-2.4,5.6-5.7,5.6
		C168.3,98.3,164.4,98.3,160.4,98.3z"/>
	<path class="st38" d="M37.4,120.2c0,2.9-2.1,5.4-4.8,6.1c-1,0.2-1.5,0.1-1.5-1.1c0-3.4,0-6.7,0-10.1c0-1.2,0.5-1.2,1.5-1
		C35.4,114.8,37.4,117.3,37.4,120.2z"/>
	<path class="st39" d="M79.6,113.9c-3.4,0-4.8-0.9-4.7-3.2c0-2.2,1.4-3,4.7-3c3.4,0,4.8,0.9,4.7,3.2
		C84.2,113.1,82.9,113.9,79.6,113.9z"/>
	<path class="st36" d="M115.1,98.3c4.1-2.7,8.4-5.1,12.8-7.4c0,2,0,3.9,0,5.9c0.1,1.2-0.4,1.6-1.6,1.6
		C122.7,98.3,118.9,98.3,115.1,98.3z"/>
	<path class="st36" d="M134.3,97.2c4.1-0.6,8-2.2,12-3.2c1.2-0.3,2.3-0.8,3.6-0.7c0.1,5.1,0.1,5.1-5,5.1c-3,0-6.1,0-9.1,0
		C134.9,98.3,134.1,98.4,134.3,97.2z"/>
	<path class="st33" d="M85.5,140.1c-0.1-0.1-0.3-0.3-0.4-0.4C85.2,139.8,85.3,139.9,85.5,140.1z"/>
	<path class="st33" d="M176,140.1c-0.1-0.1-0.3-0.3-0.4-0.4C175.8,139.8,175.9,139.9,176,140.1z"/>
	<path class="st40" d="M75,142c5,0,9.3,4.3,9.3,9.3c0,5.2-4.3,9.4-9.4,9.4c-5,0-9.3-4.3-9.3-9.3C65.6,146.3,69.8,142,75,142z"/>
	<path class="st40" d="M165.6,142c5,0,9.3,4.4,9.2,9.4c-0.1,5.2-4.3,9.4-9.5,9.3c-5,0-9.3-4.4-9.2-9.4
		C156.2,146.2,160.5,142,165.6,142z"/>
	<path class="st41" d="M123.4,132.7c-0.6,0-1.3,0-1.9,0c-1.7-0.2-2.8-1.4-2.8-3.1c0-1.7,1.1-3,2.8-3.1c1.1-0.1,2.2-0.1,3.3,0
		c2,0.1,3.2,1.3,3.2,3.1c0,1.8-1.2,3-3.2,3.1C124.3,132.7,123.9,132.7,123.4,132.7z"/>
</g>
</svg>
