<?xml version="1.0" encoding="utf-8"?>
<!-- Generator: Adobe Illustrator 24.2.3, SVG Export Plug-In . SVG Version: 6.00 Build 0)  -->
<svg version="1.1" id="Capa_1" xmlns="http://www.w3.org/2000/svg" xmlns:xlink="http://www.w3.org/1999/xlink" x="0px" y="0px"
	 viewBox="0 0 252 316.9" style="enable-background:new 0 0 252 316.9;" xml:space="preserve">
<style type="text/css">
	.st0{fill:#FFFFFF;}
	.st1{fill:#E81414;}
	.st2{fill:#737373;}
</style>
<g>
	<path class="st0" d="M240.6,8.9h-50.5v97h-10.8v-97h-50.4v6.6c-0.3-0.3-0.5-0.6-0.8-0.9c-2.4-2.5-5.9-4-9.4-4H24.5
		c-7.2,0-13,5.8-13,13v67.5c0,7.2,5.8,13,13,13H29c-0.4,0.4-0.7,0.9-1.1,1.3l-0.2,0.3c-2.6,3.9-4.1,9-4.1,14.4
		c0,2.4,0.4,4.8,1.1,7.2c1.1,3.9,2.9,7.8,5.5,11.8l0.1,0.2c0.8,1.2,1.6,2.4,2.3,3.5l-10.2,0.9v7.3c0,4.8,0.3,10.2,2.6,15.1h-0.6
		c-7.2,0-13,5.8-13,13v67.5c0,5.3,3.2,9.9,7.8,11.9h-7.7v49h28.1h6h25.8v0.1h20.9v-12.4c0.2,1.6,0.7,3.1,1.4,4.5
		c1,2.1,2.4,3.9,4.2,5.3c2.3,1.8,5.4,2.8,8.7,2.8c3.2,0,6.1-0.9,8.4-2.6c0.8-0.6,1.5-1.3,2.2-2v4.3h25.2h6.1h14.8V304
		c2.6,2.6,6.2,4,10.5,4c5.1,0,9.4-2.2,12-6.1c0.5-0.7,0.9-1.5,1.2-2.3v7.9h17.8h3.1h31.4l-7.3-48.2h8.5V8.9z M182.6,258.6v2.7
		c-1.1-0.8-2.4-1.5-3.7-1.9h0.4V157.3h10.8v101.3H182.6z M128.9,99.1V171c-0.2-0.3-0.5-0.6-0.8-0.9c-1.9-2-4.5-3.3-7.3-3.8l-5-25.7
		c2.9-4.1,4.5-9.8,4.5-16.7c0-9.8-2.8-16-6.7-19.9h5.1C122.8,104.1,126.5,102.1,128.9,99.1z"/>
	<g>
		<polygon class="st1" points="198.1,149.3 171.3,149.3 171.3,251.4 136.9,251.4 136.9,16.9 171.3,16.9 171.3,113.9 198.1,113.9 
			198.1,16.9 232.6,16.9 232.6,251.4 198.1,251.4 		"/>
		<g>
			<path d="M56,35.3v18.5c1.3,0,3-0.2,4.3-1.4c1.4-1.2,2.5-3.5,2.5-7.9s-1.1-6.8-2.5-8C59,35.4,57.3,35.3,56,35.3z"/>
			<path d="M118.7,18.6H24.5c-2.8,0-5,2.3-5,5v67.5c0,2.8,2.3,5,5,5h94.2c2.8,0,5-2.3,5-5V23.7C123.8,20.9,121.5,18.6,118.7,18.6z
				 M63.3,88.7l-4.8-26.4H56v26.3h-9.2V26.2H56c11,0,15.6,6.2,15.6,18c0,6.2-1.6,11.8-5.1,14.2l5.9,30.3H63.3z M98.5,35.7H86.7v16.4
				h8.5v10h-8.5v17.2h11.8v9.4h-21V26.2h21V35.7z"/>
		</g>
		<path class="st2" d="M47.5,122.8c0-2-0.1-4.3-0.7-6.1c-0.6-1.7-1.5-2.9-3-2.9c-2.4,0.1-3.1,2.5-3.1,6.2c0,2.1,0.9,4.3,2.3,6.7
			c1.4,2.4,3.1,4.8,4.9,7.5c2.1,3.1,4.2,6.4,5.9,9.5c1.6,3.1,2.7,6.4,2.7,9.8c0,4.2-0.7,8.1-2.6,11s-5.1,4.8-10.1,4.8
			c-5.9,0-9.2-2.2-11-5.6c-1.9-3.4-2.3-7.9-2.3-12.6l9-0.8c0,2.6,0.1,5.3,0.8,7.2c0.6,2,1.6,3.4,3.6,3.4c2.7,0,3.7-2.9,3.7-6.9
			c0-2-1-4.4-2.4-6.9c-0.8-1.2-1.5-2.5-2.4-3.7c-1.8-2.5-3.7-5.4-5.8-8.6c-2-3.1-3.6-6.4-4.5-9.7c-0.5-1.6-0.8-3.3-0.8-5
			c0-3.4,0.8-7.1,2.7-9.9c2-2.7,4.9-4.7,9.3-4.8c5.5-0.1,8.8,2.2,10.5,5.5c1.8,3.4,2.3,7.6,2.3,11L47.5,122.8z"/>
		<polygon class="st2" points="61.5,106 82.5,106 82.5,115.5 70.7,115.5 70.7,131.9 79.2,131.9 79.2,141.9 70.7,141.9 70.7,159.1 
			82.5,159.1 82.5,168.5 61.5,168.5 		"/>
		<path class="st2" d="M96.7,133.6c1.3,0,3-0.2,4.3-1.4c1.4-1.2,2.5-3.5,2.5-7.9c0-4.4-1.1-6.8-2.5-8s-3.1-1.3-4.3-1.3V133.6z
			 M104,168.5l-4.8-26.3h-2.5v26.3h-9.2V106h9.2c11,0,15.6,6.2,15.6,18c0,6.2-1.6,11.8-5.1,14.2l5.9,30.3H104z"/>
		<g>
			<path class="st1" d="M99.9,190.8v18.5c1.3,0,3-0.2,4.3-1.4c1.4-1.2,2.5-3.5,2.5-7.9s-1.1-6.8-2.5-8
				C102.9,190.9,101.2,190.8,99.9,190.8z"/>
			<polygon class="st1" points="71.7,200.4 71.2,200.4 70.9,202.1 68.3,221.8 74.6,221.8 71.9,202.1 			"/>
			<path class="st1" d="M118.7,174.2H24.5c-2.8,0-5,2.3-5,5v67.5c0,2.8,2.3,5,5,5h94.2c2.8,0,5-2.3,5-5v-67.5
				C123.8,176.4,121.5,174.2,118.7,174.2z M45.2,244.2H36l-9.5-62.5h9l4.6,34.3l0.3,2.6h0.5l0.3-2.6l4.6-34.3h8.9L45.2,244.2z
				 M77.5,244.2l-1.7-12.7H67l-1.7,12.7h-8.9l9.4-62.5H77l9.4,62.5H77.5z M107.1,244.2l-4.8-26.3h-2.5v26.3h-9.2v-62.5h9.2
				c11,0,15.6,6.2,15.6,18c0,6.2-1.6,11.8-5.1,14.2l5.9,30.3H107.1z"/>
		</g>
		<g>
			<path d="M27.7,299.6l-3.1-20.7l-0.2-1.4h-0.3v22.1h-4.5v-33h5.9l2.9,15.1l0.2,1.8h0.1l0.2-1.8l2.9-15.1h5.9v33h-4.5v-22.1h-0.3
				l-0.2,1.4l-3.1,20.7H27.7z"/>
			<path d="M49,299.6l5-33h5.9l5,33h-4.7l-0.9-6.7h-4.7l-0.9,6.7H49z M57.2,277.4l-0.1-0.9h-0.3l-0.1,0.9l-1.4,10.4h3.3L57.2,277.4z
				"/>
			<path d="M81.8,277.2l0.1,0.3H82l0.1-0.3l2.4-10.6h4.8l-4.9,19v14.1h-4.9v-14.1l-4.9-19h4.8L81.8,277.2z"/>
			<path d="M113.1,292.8c0,1.3-0.3,2.6-0.8,3.6c-0.4,0.9-1,1.8-1.9,2.4c-0.9,0.7-2.1,1.1-3.7,1.1s-2.9-0.4-3.8-1.1s-1.5-1.5-1.9-2.4
				c-0.5-1-0.8-2.2-0.8-3.6v-19.4c0-1.3,0.3-2.5,0.8-3.5c0.4-0.9,1-1.8,1.9-2.5s2.2-1.1,3.8-1.1c1.6,0,2.8,0.4,3.7,1.1
				c0.9,0.7,1.5,1.6,1.9,2.5c0.5,1,0.8,2.2,0.8,3.5V292.8z M108.2,273.4c0-0.9-0.2-1.5-0.6-2.1c-0.2-0.2-0.6-0.4-1-0.4
				c-0.9,0-1.3,0.6-1.4,1.2c-0.1,0.4-0.2,0.8-0.2,1.2v19.4c0,0.9,0.2,1.6,0.7,2.1c0.2,0.2,0.5,0.4,0.9,0.4c0.9,0,1.3-0.5,1.4-1.2
				c0.1-0.3,0.2-0.7,0.2-1.2V273.4z"/>
			<path d="M134,299.6l-2.5-13.9h-1.3v13.9h-4.9v-33h4.9c5.8,0,8.3,3.3,8.3,9.5c0,3.3-0.9,6.2-2.7,7.5l3.1,16H134z M130.2,281.2
				c0.7,0,1.6-0.1,2.3-0.7s1.3-1.8,1.3-4.2s-0.6-3.6-1.3-4.2c-0.7-0.6-1.6-0.7-2.3-0.7V281.2z"/>
			<path d="M150.5,266.6h4.9v33h-4.9V266.6z"/>
			<path d="M176,275.5c0-1.1,0-2.3-0.4-3.2c-0.3-0.9-0.8-1.5-1.6-1.5c-1.3,0-1.7,1.3-1.7,3.3c0,1.1,0.5,2.3,1.2,3.5
				c0.7,1.3,1.7,2.6,2.6,4c1.1,1.7,2.2,3.4,3.1,5c0.9,1.7,1.4,3.4,1.4,5.2c0,2.2-0.4,4.3-1.4,5.8s-2.7,2.5-5.3,2.5
				c-3.1,0-4.8-1.2-5.8-3s-1.2-4.2-1.2-6.6l4.8-0.4c0,1.4,0,2.8,0.4,3.8c0.3,1.1,0.9,1.8,1.9,1.8c1.4,0,2-1.5,2-3.6
				c0-1.1-0.5-2.3-1.3-3.6c-0.4-0.6-0.8-1.3-1.3-2c-0.9-1.3-2-2.9-3.1-4.5c-1.1-1.7-1.9-3.4-2.4-5.1c-0.3-0.9-0.4-1.8-0.4-2.6
				c0-1.8,0.4-3.7,1.4-5.2c1-1.4,2.6-2.5,4.9-2.5c2.9,0,4.6,1.2,5.6,2.9c0.9,1.8,1.2,4,1.2,5.8L176,275.5z"/>
			<path d="M190.6,271.6v-5h14v5H200v28h-4.9v-28H190.6z"/>
			<path d="M214.2,299.6l5-33h5.9l5,33h-4.7l-0.9-6.7h-4.7l-0.9,6.7H214.2z M222.4,277.4l-0.1-0.9H222l-0.1,0.9l-1.4,10.4h3.3
				L222.4,277.4z"/>
		</g>
	</g>
</g>
</svg>
