<?xml version="1.0" encoding="utf-8"?>
<!-- Generator: Adobe Illustrator 24.2.3, SVG Export Plug-In . SVG Version: 6.00 Build 0)  -->
<svg version="1.1" id="Capa_1" xmlns="http://www.w3.org/2000/svg" xmlns:xlink="http://www.w3.org/1999/xlink" x="0px" y="0px"
	 viewBox="0 0 233 293" style="enable-background:new 0 0 233 293;" xml:space="preserve">
<style type="text/css">
	.st0{fill:#FFFFFF;}
</style>
<g>
	<path d="M48.5,25v18.5c1.3,0,3-0.2,4.3-1.4c1.4-1.2,2.5-3.5,2.5-7.9s-1.1-6.8-2.5-8C51.5,25.1,49.8,25,48.5,25z"/>
	<path d="M111.2,8.3H17c-2.8,0-5,2.3-5,5v67.5c0,2.8,2.3,5,5,5h94.2c2.8,0,5-2.3,5-5V13.4C116.3,10.6,114,8.3,111.2,8.3z M55.8,78.4
		L51,52h-2.5v26.3h-9.2V15.9h9.2c11,0,15.6,6.2,15.6,18c0,6.2-1.6,11.8-5.1,14.2l5.9,30.3H55.8z M91,25.4H79.2v16.4h8.5v10h-8.5V69
		H91v9.4H70V15.9h21V25.4z"/>
</g>
<path d="M40,112.5c0-2-0.1-4.3-0.7-6.1c-0.6-1.7-1.5-2.9-3-2.9c-2.4,0.1-3.1,2.5-3.1,6.2c0,2.1,0.9,4.3,2.3,6.7
	c1.4,2.4,3.1,4.8,4.9,7.5c2.1,3.1,4.2,6.4,5.9,9.5c1.6,3.1,2.7,6.4,2.7,9.8c0,4.2-0.7,8.1-2.6,11s-5.1,4.8-10.1,4.8
	c-5.9,0-9.2-2.2-11-5.6c-1.9-3.4-2.3-7.9-2.3-12.6l9-0.8c0,2.6,0.1,5.3,0.8,7.2c0.6,2,1.6,3.4,3.6,3.4c2.7,0,3.7-2.9,3.7-6.9
	c0-2-1-4.4-2.4-6.9c-0.8-1.2-1.5-2.5-2.4-3.7c-1.8-2.5-3.7-5.4-5.8-8.6c-2-3.1-3.6-6.4-4.5-9.7c-0.5-1.6-0.8-3.3-0.8-5
	c0-3.4,0.8-7.1,2.7-9.9c2-2.7,4.9-4.7,9.3-4.8c5.5-0.1,8.8,2.2,10.5,5.5c1.8,3.4,2.3,7.6,2.3,11L40,112.5z"/>
<polygon points="54,95.7 75,95.7 75,105.2 63.2,105.2 63.2,121.6 71.7,121.6 71.7,131.6 63.2,131.6 63.2,148.8 75,148.8 75,158.2 
	54,158.2 "/>
<path d="M89.2,123.3c1.3,0,3-0.2,4.3-1.4c1.4-1.2,2.5-3.5,2.5-7.9s-1.1-6.8-2.5-8s-3.1-1.3-4.3-1.3V123.3z M96.5,158.2l-4.8-26.3
	h-2.5v26.3H80V95.7h9.2c11,0,15.6,6.2,15.6,18c0,6.2-1.6,11.8-5.1,14.2l5.9,30.3H96.5z"/>
<g>
	<polygon class="st0" points="190.6,139 163.8,139 163.8,241.1 129.4,241.1 129.4,6.6 163.8,6.6 163.8,103.6 190.6,103.6 190.6,6.6 
		225.1,6.6 225.1,241.1 190.6,241.1 	"/>
	<g>
		<path class="st0" d="M92.4,180.5V199c1.3,0,3-0.2,4.3-1.4c1.4-1.2,2.5-3.5,2.5-7.9s-1.1-6.8-2.5-8
			C95.4,180.6,93.7,180.5,92.4,180.5z"/>
		<polygon class="st0" points="64.2,190.1 63.7,190.1 63.4,191.8 60.8,211.5 67.1,211.5 64.4,191.8 		"/>
		<path class="st0" d="M111.2,163.9H17c-2.8,0-5,2.3-5,5v67.5c0,2.8,2.3,5,5,5h94.2c2.8,0,5-2.3,5-5v-67.5
			C116.3,166.1,114,163.9,111.2,163.9z M37.7,233.9h-9.2L19,171.4h9l4.6,34.3l0.3,2.6h0.5l0.3-2.6l4.6-34.3h8.9L37.7,233.9z
			 M70,233.9l-1.7-12.7h-8.8l-1.7,12.7h-8.9l9.4-62.5h11.2l9.4,62.5H70z M99.6,233.9l-4.8-26.3h-2.5v26.3h-9.2v-62.5h9.2
			c11,0,15.6,6.2,15.6,18c0,6.2-1.6,11.8-5.1,14.2l5.9,30.3H99.6z"/>
	</g>
</g>
<g>
	<path d="M20.2,289.3l-3.1-20.7l-0.2-1.4h-0.3v22.1h-4.5v-33H18l2.9,15.1l0.2,1.8h0.1l0.2-1.8l2.9-15.1h5.9v33h-4.5v-22.1h-0.3
		l-0.2,1.4l-3.1,20.7H20.2z"/>
	<path d="M41.5,289.3l5-33h5.9l5,33h-4.7l-0.9-6.7h-4.7l-0.9,6.7H41.5z M49.7,267.1l-0.1-0.9h-0.3l-0.1,0.9l-1.4,10.4h3.3
		L49.7,267.1z"/>
	<path d="M74.3,266.9l0.1,0.3h0.1l0.1-0.3l2.4-10.6h4.8l-4.9,19v14.1H72v-14.1l-4.9-19h4.8L74.3,266.9z"/>
	<path d="M105.6,282.5c0,1.3-0.3,2.6-0.8,3.6c-0.4,0.9-1,1.8-1.9,2.4c-0.9,0.7-2.1,1.1-3.7,1.1s-2.9-0.4-3.8-1.1s-1.5-1.5-1.9-2.4
		c-0.5-1-0.8-2.2-0.8-3.6v-19.4c0-1.3,0.3-2.5,0.8-3.5c0.4-0.9,1-1.8,1.9-2.5s2.2-1.1,3.8-1.1c1.6,0,2.8,0.4,3.7,1.1
		c0.9,0.7,1.5,1.6,1.9,2.5c0.5,1,0.8,2.2,0.8,3.5V282.5z M100.7,263.1c0-0.9-0.2-1.5-0.6-2.1c-0.2-0.2-0.6-0.4-1-0.4
		c-0.9,0-1.3,0.6-1.4,1.2c-0.1,0.4-0.2,0.8-0.2,1.2v19.4c0,0.9,0.2,1.6,0.7,2.1c0.2,0.2,0.5,0.4,0.9,0.4c0.9,0,1.3-0.5,1.4-1.2
		c0.1-0.3,0.2-0.7,0.2-1.2V263.1z"/>
	<path d="M126.5,289.3l-2.5-13.9h-1.3v13.9h-4.9v-33h4.9c5.8,0,8.3,3.3,8.3,9.5c0,3.3-0.9,6.2-2.7,7.5l3.1,16H126.5z M122.7,270.9
		c0.7,0,1.6-0.1,2.3-0.7c0.7-0.6,1.3-1.8,1.3-4.2s-0.6-3.6-1.3-4.2c-0.7-0.6-1.6-0.7-2.3-0.7V270.9z"/>
	<path d="M143,256.3h4.9v33H143V256.3z"/>
	<path d="M168.5,265.2c0-1.1,0-2.3-0.4-3.2c-0.3-0.9-0.8-1.5-1.6-1.5c-1.3,0-1.7,1.3-1.7,3.3c0,1.1,0.5,2.3,1.2,3.5
		c0.7,1.3,1.7,2.6,2.6,4c1.1,1.7,2.2,3.4,3.1,5c0.9,1.7,1.4,3.4,1.4,5.2c0,2.2-0.4,4.3-1.4,5.8s-2.7,2.5-5.3,2.5
		c-3.1,0-4.8-1.2-5.8-3s-1.2-4.2-1.2-6.6l4.8-0.4c0,1.4,0,2.8,0.4,3.8c0.3,1.1,0.9,1.8,1.9,1.8c1.4,0,2-1.5,2-3.6
		c0-1.1-0.5-2.3-1.3-3.6c-0.4-0.6-0.8-1.3-1.3-2c-0.9-1.3-2-2.9-3.1-4.5c-1.1-1.7-1.9-3.4-2.4-5.1c-0.3-0.9-0.4-1.8-0.4-2.6
		c0-1.8,0.4-3.7,1.4-5.2c1-1.4,2.6-2.5,4.9-2.5c2.9,0,4.6,1.2,5.6,2.9c0.9,1.8,1.2,4,1.2,5.8L168.5,265.2z"/>
	<path d="M183.1,261.3v-5h14v5h-4.6v28h-4.9v-28H183.1z"/>
	<path d="M206.7,289.3l5-33h5.9l5,33h-4.7l-0.9-6.7h-4.7l-0.9,6.7H206.7z M214.9,267.1l-0.1-0.9h-0.3l-0.1,0.9l-1.4,10.4h3.3
		L214.9,267.1z"/>
</g>
</svg>
