<svg width="21" height="21" viewBox="0 0 21 21" fill="none" xmlns="http://www.w3.org/2000/svg">
<path d="M19 8.60465C18.8372 8.6204 18.6745 8.6309 18.5117 8.6309C16.7215 8.6309 15.052 7.7279 14.0755 6.23165V14.3954C14.0755 17.7292 11.3717 20.4329 8.03799 20.4329C4.70424 20.4329 2.00049 17.7292 2.00049 14.3954C2.00049 11.0617 4.70424 8.3579 8.03799 8.3579C8.16399 8.3579 8.28474 8.3684 8.41074 8.3789V11.3504C8.28474 11.3346 8.16399 11.3136 8.03799 11.3136C6.33699 11.3136 4.95624 12.6944 4.95624 14.3954C4.95624 16.0964 6.33699 17.4772 8.03799 17.4772C9.73899 17.4772 11.2405 16.1384 11.2405 14.4374L11.272 0.566895H14.1227C14.3905 3.1184 16.4485 5.1134 19.0052 5.29715L19 8.60465Z" fill="white"/>
</svg>
