<svg width="18" height="18" viewBox="0 0 18 18" fill="none" xmlns="http://www.w3.org/2000/svg">
<path d="M2.25 15.75L3.4875 12.9C1.52864 10.1193 1.94478 6.3155 4.45853 4.02412C6.97229 1.73274 10.7983 1.6697 13.3861 3.87701C15.974 6.08432 16.5153 9.87234 14.6491 12.7161C12.7829 15.5598 9.09236 16.5707 6.0375 15.075L2.25 15.75" stroke="white" stroke-width="1.5" stroke-linecap="round" stroke-linejoin="round"/>
<path d="M6.75 7.5C6.75 7.70711 6.91789 7.875 7.125 7.875C7.33211 7.875 7.5 7.70711 7.5 7.5V6.75C7.5 6.54289 7.33211 6.375 7.125 6.375C6.91789 6.375 6.75 6.54289 6.75 6.75V7.5C6.75 9.57107 8.42893 11.25 10.5 11.25H11.25C11.4571 11.25 11.625 11.0821 11.625 10.875C11.625 10.6679 11.4571 10.5 11.25 10.5H10.5C10.2929 10.5 10.125 10.6679 10.125 10.875C10.125 11.0821 10.2929 11.25 10.5 11.25" stroke="white" stroke-width="1.5" stroke-linecap="round" stroke-linejoin="round"/>
</svg>
