<?xml version="1.0" encoding="utf-8"?>
<!-- Generator: Adobe Illustrator 24.2.3, SVG Export Plug-In . SVG Version: 6.00 Build 0)  -->
<svg version="1.1" id="Layer_1" xmlns="http://www.w3.org/2000/svg" xmlns:xlink="http://www.w3.org/1999/xlink" x="0px" y="0px"
	 viewBox="0 0 20 20" style="enable-background:new 0 0 20 20;" xml:space="preserve">
<style type="text/css">
	.st0{enable-background:new    ;}
	.st1{fill-rule:evenodd;clip-rule:evenodd;fill:#ffffff;}
</style>
<g>
	<g>
		<g class="st0">
			<g>
				<g>
					<g>
						<path id="SVGID_1_" class="st1" d="M9.8,0.6C5,0.8,1.2,4.7,1.2,9.5c0,1.4,0.4,2.8,1,4l-1,4.6c-0.1,0.2,0.2,0.5,0.4,0.4
							l4.5-1.1c1.2,0.6,2.5,0.9,3.9,0.9c4.9,0.1,9-3.8,9.1-8.6C19.4,4.5,15.1,0.3,9.8,0.6 M15.2,14.4c-1.3,1.3-3.1,2-5,2
							c-1.1,0-2.2-0.2-3.1-0.7l-0.6-0.3l-2.8,0.7l0.6-2.8L4,12.6c-0.5-1-0.8-2.1-0.8-3.2c0-1.9,0.7-3.6,2.1-4.9c1.3-1.3,3.1-2,5-2
							s3.7,0.7,5,2s2.1,3.1,2.1,4.9C17.3,11.3,16.6,13.1,15.2,14.4"/>
					</g>
				</g>
			</g>
		</g>
	</g>
</g>
<g>
	<g>
		<path id="SVGID_3_" class="st1" d="M14.8,11l-1.7-0.5c-0.2-0.1-0.5,0-0.6,0.2l-0.4,0.4c-0.2,0.2-0.4,0.2-0.7,0.2
			C10.6,10.9,9,9.4,8.6,8.6C8.4,8.3,8.4,8,8.6,7.8L9,7.3c0.1-0.2,0.1-0.4,0-0.6L8.3,4.9c-0.2-0.4-0.7-0.5-1-0.2
			c-0.5,0.4-1,1.1-1.1,1.8c-0.1,1.3,0.4,2.9,2.3,4.8c2.2,2.2,4,2.5,5.1,2.2c0.6-0.2,1.2-0.8,1.5-1.4C15.4,11.7,15.2,11.2,14.8,11"/>
	</g>
	<g>
		<defs>
			<path id="SVGID_2_" d="M14.8,11l-1.7-0.5c-0.2-0.1-0.5,0-0.6,0.2l-0.4,0.4c-0.2,0.2-0.4,0.2-0.7,0.2C10.6,10.9,9,9.4,8.6,8.6
				C8.4,8.3,8.4,8,8.6,7.8L9,7.3c0.1-0.2,0.1-0.4,0-0.6L8.3,4.9c-0.2-0.4-0.7-0.5-1-0.2c-0.5,0.4-1,1.1-1.1,1.8
				c-0.1,1.3,0.4,2.9,2.3,4.8c2.2,2.2,4,2.5,5.1,2.2c0.6-0.2,1.2-0.8,1.5-1.4C15.4,11.7,15.2,11.2,14.8,11"/>
		</defs>
		<use xlink:href="#SVGID_2_"  style="overflow:visible;fill:#ffffff;"/>
		<clipPath id="SVGID_4_">
			<use xlink:href="#SVGID_2_"  style="overflow:visible;"/>
		</clipPath>
	</g>
</g>
</svg>

