<?xml version="1.0" standalone="no"?>
<!DOCTYPE svg PUBLIC "-//W3C//DTD SVG 20010904//EN"
 "http://www.w3.org/TR/2001/REC-SVG-20010904/DTD/svg10.dtd">
<svg version="1.0" xmlns="http://www.w3.org/2000/svg"
 width="700.000000pt" height="700.000000pt" viewBox="0 0 700.000000 700.000000"
 preserveAspectRatio="xMidYMid meet">
<metadata>
Created by potrace 1.14, written by Peter Selinger 2001-2017
</metadata>
<g transform="translate(0.000000,700.000000) scale(0.100000,-0.100000)"
fill="#000000" stroke="none">
<path d="M820 6698 c-262 -26 -472 -227 -516 -494 -9 -53 -9 -5314 0 -5388 9
-73 61 -216 78 -216 5 0 8 -7 8 -16 0 -29 151 -167 220 -201 143 -72 -110 -66
2870 -68 2964 -2 2757 -6 2900 63 98 47 211 159 257 254 70 142 65 -87 65
2878 0 2983 6 2739 -70 2884 -75 144 -240 267 -398 297 -65 13 -5294 20 -5414
7z"/>
</g>
</svg>
